<?xml version="1.0" encoding="UTF-8"?><svg xmlns="http://www.w3.org/2000/svg" xmlns:xlink="http://www.w3.org/1999/xlink" fill-opacity="1" color-rendering="auto" color-interpolation="auto" text-rendering="auto" stroke="black" stroke-linecap="square" width="789" stroke-miterlimit="10" shape-rendering="auto" stroke-opacity="1" fill="black" stroke-dasharray="none" font-weight="normal" stroke-width="1" height="492" font-family="'Dialog'" font-style="normal" stroke-linejoin="miter" font-size="12px" stroke-dashoffset="0" image-rendering="auto">
  <!--Generated by ySVG 2.5-->
  <defs id="genericDefs"/>
  <g>
    <defs id="defs1">
      <clipPath clipPathUnits="userSpaceOnUse" id="clipPath1">
        <path d="M0 0 L789 0 L789 492 L0 492 L0 0 Z"/>
      </clipPath>
      <clipPath clipPathUnits="userSpaceOnUse" id="clipPath2">
        <path d="M415 354 L1204 354 L1204 846 L415 846 L415 354 Z"/>
      </clipPath>
    </defs>
    <g fill="silver" text-rendering="geometricPrecision" shape-rendering="geometricPrecision" transform="matrix(1,0,0,1,-415,-354)" stroke="silver">
      <rect x="435" width="174.8" height="121.1616" y="485" clip-path="url(#clipPath2)" stroke="none"/>
    </g>
    <g text-rendering="geometricPrecision" stroke-miterlimit="1.45" shape-rendering="geometricPrecision" transform="matrix(1,0,0,1,-415,-354)" stroke-linecap="butt">
      <rect fill="none" x="435" width="174.8" height="121.1616" y="485" clip-path="url(#clipPath2)"/>
    </g>
    <g fill="silver" text-rendering="geometricPrecision" shape-rendering="geometricPrecision" transform="matrix(1,0,0,1,-415,-354)" stroke="silver">
      <rect x="672.6" width="174.8" height="121.1616" y="369.4192" clip-path="url(#clipPath2)" stroke="none"/>
    </g>
    <g text-rendering="geometricPrecision" stroke-miterlimit="1.45" shape-rendering="geometricPrecision" transform="matrix(1,0,0,1,-415,-354)" stroke-linecap="butt">
      <rect fill="none" x="672.6" width="174.8" height="121.1616" y="369.4192" clip-path="url(#clipPath2)"/>
      <text x="752.1895" xml:space="preserve" y="434.1543" clip-path="url(#clipPath2)" font-family="sans-serif" stroke="none">jar</text>
    </g>
    <g fill="white" text-rendering="geometricPrecision" shape-rendering="geometricPrecision" transform="matrix(1,0,0,1,-415,-354)" stroke="white">
      <rect x="720" width="100" height="50" y="410" clip-path="url(#clipPath2)" stroke="none"/>
    </g>
    <g text-rendering="geometricPrecision" stroke-miterlimit="1.45" stroke-width="2" shape-rendering="geometricPrecision" transform="matrix(1,0,0,1,-415,-354)" stroke-linecap="butt">
      <rect fill="none" x="720" width="100" height="50" y="410" clip-path="url(#clipPath2)"/>
      <text x="741.9971" font-size="20px" y="441.9238" clip-path="url(#clipPath2)" font-family="sans-serif" stroke="none" stroke-width="1" xml:space="preserve">.class</text>
    </g>
    <g fill="white" text-rendering="geometricPrecision" shape-rendering="geometricPrecision" transform="matrix(1,0,0,1,-415,-354)" stroke="white">
      <rect x="710" width="100" height="50" y="420" clip-path="url(#clipPath2)" stroke="none"/>
    </g>
    <g text-rendering="geometricPrecision" stroke-miterlimit="1.45" stroke-width="2" shape-rendering="geometricPrecision" transform="matrix(1,0,0,1,-415,-354)" stroke-linecap="butt">
      <rect fill="none" x="710" width="100" height="50" y="420" clip-path="url(#clipPath2)"/>
      <text x="731.9971" font-size="20px" y="451.9238" clip-path="url(#clipPath2)" font-family="sans-serif" stroke="none" stroke-width="1" xml:space="preserve">.class</text>
    </g>
    <g fill="white" text-rendering="geometricPrecision" shape-rendering="geometricPrecision" transform="matrix(1,0,0,1,-415,-354)" stroke="white">
      <rect x="700" width="100" height="50" y="430" clip-path="url(#clipPath2)" stroke="none"/>
    </g>
    <g text-rendering="geometricPrecision" stroke-miterlimit="1.45" stroke-width="2" shape-rendering="geometricPrecision" transform="matrix(1,0,0,1,-415,-354)" stroke-linecap="butt">
      <rect fill="none" x="700" width="100" height="50" y="430" clip-path="url(#clipPath2)"/>
      <text x="721.9971" font-size="20px" y="461.9238" clip-path="url(#clipPath2)" font-family="sans-serif" stroke="none" stroke-width="1" xml:space="preserve">.class</text>
    </g>
    <g fill="silver" text-rendering="geometricPrecision" shape-rendering="geometricPrecision" transform="matrix(1,0,0,1,-415,-354)" stroke="silver">
      <rect x="795" width="52.4" height="30" y="369.4192" clip-path="url(#clipPath2)" stroke="none"/>
    </g>
    <g text-rendering="geometricPrecision" stroke-miterlimit="1.45" shape-rendering="geometricPrecision" transform="matrix(1,0,0,1,-415,-354)" stroke-linecap="butt">
      <rect fill="none" x="795" width="52.4" height="30" y="369.4192" clip-path="url(#clipPath2)"/>
      <text x="808.1824" font-size="20px" y="391.343" clip-path="url(#clipPath2)" font-family="sans-serif" stroke="none" xml:space="preserve">jar</text>
      <rect x="710" y="520.5808" clip-path="url(#clipPath2)" fill="none" width="100" height="50" stroke-width="2"/>
      <text x="739.9414" font-size="20px" y="552.5046" clip-path="url(#clipPath2)" font-family="sans-serif" stroke="none" xml:space="preserve">KFG</text>
      <path fill="none" stroke-width="2" d="M725 621.0833 L745.5025 600.5808 L774.4975 600.5808 L795 621.0833 L795 650.0782 L774.4975 670.5808 L745.5025 670.5808 L725 650.0782 Z" clip-path="url(#clipPath2)" fill-rule="evenodd"/>
      <text x="747.6221" font-size="20px" y="642.5046" clip-path="url(#clipPath2)" font-family="sans-serif" stroke="none" xml:space="preserve">PS</text>
      <rect x="710" y="700.5808" clip-path="url(#clipPath2)" fill="none" width="100" height="50" stroke-width="2"/>
      <text x="738.916" font-size="20px" y="732.5046" clip-path="url(#clipPath2)" font-family="sans-serif" stroke="none" xml:space="preserve">SMT</text>
      <rect x="710" y="780.5808" clip-path="url(#clipPath2)" fill="none" width="100" height="50" stroke-width="2"/>
      <text x="729.7119" font-size="20px" y="812.5046" clip-path="url(#clipPath2)" font-family="sans-serif" stroke="none" xml:space="preserve">solver</text>
      <rect x="940.8" y="780.5808" clip-path="url(#clipPath2)" fill="none" width="100" height="50" stroke-width="2"/>
      <text x="959.6623" font-size="20px" y="812.5046" clip-path="url(#clipPath2)" font-family="sans-serif" stroke="none" xml:space="preserve">model</text>
      <text x="852.1031" font-size="20px" y="812.5046" clip-path="url(#clipPath2)" font-family="sans-serif" stroke="none" xml:space="preserve">SAT</text>
      <text x="601.5033" font-size="20px" y="812.5046" clip-path="url(#clipPath2)" font-family="sans-serif" stroke="none" xml:space="preserve">UNSAT</text>
      <rect x="430.6" y="780.5808" clip-path="url(#clipPath2)" fill="none" width="140" height="50" stroke-width="2"/>
      <text x="438.2904" font-size="20px" y="812.5046" clip-path="url(#clipPath2)" font-family="sans-serif" stroke="none" xml:space="preserve">unreachable</text>
      <rect x="1088.2" y="780.5808" clip-path="url(#clipPath2)" fill="none" width="100" height="50" stroke-width="2"/>
      <text x="1118.9958" font-size="20px" y="800.864" clip-path="url(#clipPath2)" font-family="sans-serif" stroke="none" xml:space="preserve">test</text>
      <text x="1107.2673" font-size="20px" y="824.1453" clip-path="url(#clipPath2)" font-family="sans-serif" stroke="none" xml:space="preserve">inputs</text>
    </g>
    <g fill="white" text-rendering="geometricPrecision" shape-rendering="geometricPrecision" transform="matrix(1,0,0,1,-415,-354)" stroke="white">
      <rect x="446.4" width="152" height="30" y="569.8" clip-path="url(#clipPath2)" stroke="none"/>
    </g>
    <g text-rendering="geometricPrecision" stroke-miterlimit="1.45" stroke-width="2" shape-rendering="geometricPrecision" transform="matrix(1,0,0,1,-415,-354)" stroke-linecap="butt">
      <rect fill="none" x="446.4" width="152" height="30" y="569.8" clip-path="url(#clipPath2)"/>
      <text x="452.0875" font-size="20px" y="591.7238" clip-path="url(#clipPath2)" font-family="sans-serif" stroke="none" stroke-width="1" xml:space="preserve">instrumenting</text>
    </g>
    <g fill="white" text-rendering="geometricPrecision" shape-rendering="geometricPrecision" transform="matrix(1,0,0,1,-415,-354)" stroke="white">
      <rect x="446.4" width="152" height="30" y="530.5808" clip-path="url(#clipPath2)" stroke="none"/>
    </g>
    <g text-rendering="geometricPrecision" stroke-miterlimit="1.45" stroke-width="2" shape-rendering="geometricPrecision" transform="matrix(1,0,0,1,-415,-354)" stroke-linecap="butt">
      <rect fill="none" x="446.4" width="152" height="30" y="530.5808" clip-path="url(#clipPath2)"/>
      <text x="485.9254" font-size="20px" y="552.5046" clip-path="url(#clipPath2)" font-family="sans-serif" stroke="none" stroke-width="1" xml:space="preserve">inlining</text>
    </g>
    <g fill="white" text-rendering="geometricPrecision" shape-rendering="geometricPrecision" transform="matrix(1,0,0,1,-415,-354)" stroke="white">
      <rect x="446.4" width="152" height="30" y="491.3616" clip-path="url(#clipPath2)" stroke="none"/>
    </g>
    <g text-rendering="geometricPrecision" stroke-miterlimit="1.45" stroke-width="2" shape-rendering="geometricPrecision" transform="matrix(1,0,0,1,-415,-354)" stroke-linecap="butt">
      <rect fill="none" x="446.4" width="152" height="30" y="491.3616" clip-path="url(#clipPath2)"/>
      <text x="453.9332" font-size="20px" y="513.2854" clip-path="url(#clipPath2)" font-family="sans-serif" stroke="none" stroke-width="1" xml:space="preserve">loop unrolling</text>
    </g>
    <g fill="silver" text-rendering="geometricPrecision" shape-rendering="geometricPrecision" transform="matrix(1,0,0,1,-415,-354)" stroke="silver">
      <rect x="898.8" width="174.8" height="161.1616" y="555" clip-path="url(#clipPath2)" stroke="none"/>
    </g>
    <g text-rendering="geometricPrecision" stroke-miterlimit="1.45" shape-rendering="geometricPrecision" transform="matrix(1,0,0,1,-415,-354)" stroke-linecap="butt">
      <rect fill="none" x="898.8" width="174.8" height="161.1616" y="555" clip-path="url(#clipPath2)"/>
      <text x="976.6639" font-size="20px" y="661.7238" clip-path="url(#clipPath2)" font-family="sans-serif" stroke="none" xml:space="preserve">...</text>
    </g>
    <g fill="white" text-rendering="geometricPrecision" shape-rendering="geometricPrecision" transform="matrix(1,0,0,1,-415,-354)" stroke="white">
      <rect x="910.2" width="152" height="30" y="600.5808" clip-path="url(#clipPath2)" stroke="none"/>
    </g>
    <g text-rendering="geometricPrecision" stroke-miterlimit="1.45" stroke-width="2" shape-rendering="geometricPrecision" transform="matrix(1,0,0,1,-415,-354)" stroke-linecap="butt">
      <rect fill="none" x="910.2" width="152" height="30" y="600.5808" clip-path="url(#clipPath2)"/>
      <text x="954.4715" font-size="20px" y="622.5046" clip-path="url(#clipPath2)" font-family="sans-serif" stroke="none" stroke-width="1" xml:space="preserve">slicing</text>
    </g>
    <g fill="white" text-rendering="geometricPrecision" shape-rendering="geometricPrecision" transform="matrix(1,0,0,1,-415,-354)" stroke="white">
      <rect x="910.2" width="152" height="30" y="561.3616" clip-path="url(#clipPath2)" stroke="none"/>
    </g>
    <g text-rendering="geometricPrecision" stroke-miterlimit="1.45" stroke-width="2" shape-rendering="geometricPrecision" transform="matrix(1,0,0,1,-415,-354)" stroke-linecap="butt">
      <rect fill="none" x="910.2" width="152" height="30" y="561.3616" clip-path="url(#clipPath2)"/>
      <text x="921.9178" font-size="20px" y="583.2854" clip-path="url(#clipPath2)" font-family="sans-serif" stroke="none" stroke-width="1" xml:space="preserve">memspacing</text>
    </g>
    <g fill="white" text-rendering="geometricPrecision" shape-rendering="geometricPrecision" transform="matrix(1,0,0,1,-415,-354)" stroke="white">
      <rect x="910.2" width="152" height="30" y="679.0192" clip-path="url(#clipPath2)" stroke="none"/>
    </g>
    <g text-rendering="geometricPrecision" stroke-miterlimit="1.45" stroke-width="2" shape-rendering="geometricPrecision" transform="matrix(1,0,0,1,-415,-354)" stroke-linecap="butt">
      <rect fill="none" x="910.2" width="152" height="30" y="679.0192" clip-path="url(#clipPath2)"/>
      <text x="941.9276" font-size="20px" y="700.9431" clip-path="url(#clipPath2)" font-family="sans-serif" stroke="none" stroke-width="1" xml:space="preserve">type info</text>
      <path fill="none" d="M760 490.5808 L760 512.5808" stroke-width="1" clip-path="url(#clipPath2)"/>
      <path d="M760 520.5808 L765 508.5808 L760 511.5808 L755 508.5808 Z" stroke-width="1" clip-path="url(#clipPath2)" stroke="none"/>
      <path fill="none" stroke-dasharray="12,4" d="M711.4615 520.5808 L642.38 485 L609.778 485" clip-path="url(#clipPath2)"/>
      <path fill="none" stroke-dasharray="12,4" d="M711.4811 570.5808 L643.98 605.3616 L609.8152 605.3616" clip-path="url(#clipPath2)"/>
      <path fill="none" d="M760 570.5808 L760 592.5735" stroke-width="1" clip-path="url(#clipPath2)"/>
      <path d="M760 600.5735 L765 588.5735 L760 591.5735 L755 588.5735 Z" stroke-width="1" clip-path="url(#clipPath2)" stroke="none"/>
      <path fill="none" d="M760 670.6052 L760 692.5808" stroke-width="1" clip-path="url(#clipPath2)"/>
      <path d="M760 700.5808 L765 688.5808 L760 691.5808 L755 688.5808 Z" stroke-width="1" clip-path="url(#clipPath2)" stroke="none"/>
      <path fill="none" d="M760 750.5808 L760 772.5808" stroke-width="1" clip-path="url(#clipPath2)"/>
      <path d="M760 780.5808 L765 768.5808 L760 771.5808 L755 768.5808 Z" stroke-width="1" clip-path="url(#clipPath2)" stroke="none"/>
      <path fill="none" d="M810 805.5808 L841.4 805.5808" stroke-width="1" clip-path="url(#clipPath2)"/>
      <path d="M849.4 805.5808 L837.4 800.5808 L840.4 805.5808 L837.4 810.5808 Z" stroke-width="1" clip-path="url(#clipPath2)" stroke="none"/>
      <path fill="none" d="M893.4 805.5808 L932.8 805.5808" stroke-width="1" clip-path="url(#clipPath2)"/>
      <path d="M940.8 805.5808 L928.8 800.5808 L931.8 805.5808 L928.8 810.5808 Z" stroke-width="1" clip-path="url(#clipPath2)" stroke="none"/>
      <path fill="none" d="M710 805.5808 L678.6 805.5808" stroke-width="1" clip-path="url(#clipPath2)"/>
      <path d="M670.6 805.5808 L682.6 810.5808 L679.6 805.5808 L682.6 800.5808 Z" stroke-width="1" clip-path="url(#clipPath2)" stroke="none"/>
      <path fill="none" d="M600.6 805.5808 L578.6 805.5808" stroke-width="1" clip-path="url(#clipPath2)"/>
      <path d="M570.6 805.5808 L582.6 810.5808 L579.6 805.5808 L582.6 800.5808 Z" stroke-width="1" clip-path="url(#clipPath2)" stroke="none"/>
      <path fill="none" d="M1040.8 805.5808 L1080.2 805.5808" stroke-width="1" clip-path="url(#clipPath2)"/>
      <path d="M1088.2 805.5808 L1076.2 800.5808 L1079.2 805.5808 L1076.2 810.5808 Z" stroke-width="1" clip-path="url(#clipPath2)" stroke="none"/>
      <path fill="none" stroke-dasharray="12,4" d="M786.3859 612.465 L851.98 555 L898.8063 555" clip-path="url(#clipPath2)"/>
      <path fill="none" stroke-dasharray="12,4" d="M786.7926 658.2638 L855.18 716.1616 L896.78 716.1616" clip-path="url(#clipPath2)"/>
    </g>
  </g>
</svg>
