<?xml version="1.0" encoding="UTF-8"?><svg xmlns="http://www.w3.org/2000/svg" xmlns:xlink="http://www.w3.org/1999/xlink" fill-opacity="1" color-rendering="auto" color-interpolation="auto" text-rendering="auto" stroke="black" stroke-linecap="square" width="796" stroke-miterlimit="10" shape-rendering="auto" stroke-opacity="1" fill="black" stroke-dasharray="none" font-weight="normal" stroke-width="1" height="748" font-family="'Dialog'" font-style="normal" stroke-linejoin="miter" font-size="12px" stroke-dashoffset="0" image-rendering="auto">
  <!--Generated by ySVG 2.5-->
  <defs id="genericDefs"/>
  <g>
    <defs id="defs1">
      <linearGradient x1="725" gradientUnits="userSpaceOnUse" x2="785" y1="490.9749" y2="490.9749" id="linearGradient1" spreadMethod="reflect">
        <stop stop-opacity="1" stop-color="rgb(0,204,255)" offset="0%"/>
        <stop stop-opacity="1" stop-color="rgb(0,204,255)" offset="100%"/>
      </linearGradient>
      <clipPath clipPathUnits="userSpaceOnUse" id="clipPath1">
        <path d="M0 0 L796 0 L796 748 L0 748 L0 0 Z"/>
      </clipPath>
      <clipPath clipPathUnits="userSpaceOnUse" id="clipPath2">
        <path d="M366 154 L1162 154 L1162 902 L366 902 L366 154 Z"/>
      </clipPath>
    </defs>
    <g fill="silver" text-rendering="geometricPrecision" shape-rendering="geometricPrecision" transform="matrix(1,0,0,1,-366,-154)" stroke="silver">
      <rect x="635" width="250" height="80" y="169.3573" clip-path="url(#clipPath2)" stroke="none"/>
    </g>
    <g fill="white" text-rendering="geometricPrecision" shape-rendering="geometricPrecision" transform="matrix(1,0,0,1,-366,-154)" stroke="white">
      <rect x="635" width="1" height="80" y="169.3573" clip-path="url(#clipPath2)" stroke="none"/>
      <rect x="636" width="248" height="1" y="169.3573" clip-path="url(#clipPath2)" stroke="none"/>
      <rect x="636" y="248.3573" clip-path="url(#clipPath2)" fill="rgb(134,134,134)" width="249" height="1" stroke="none"/>
      <rect x="884" y="169.3573" clip-path="url(#clipPath2)" fill="rgb(134,134,134)" width="1" height="79" stroke="none"/>
    </g>
    <g font-size="35px" stroke-linecap="butt" transform="matrix(1,0,0,1,-366,-154)" text-rendering="geometricPrecision" font-family="sans-serif" shape-rendering="geometricPrecision" stroke-miterlimit="1.45">
      <text x="740.5574" xml:space="preserve" y="217.3724" clip-path="url(#clipPath2)" stroke="none">jar</text>
    </g>
    <g fill="silver" text-rendering="geometricPrecision" shape-rendering="geometricPrecision" transform="matrix(1,0,0,1,-366,-154)" stroke="silver">
      <rect x="625" width="250" height="80" y="179.3573" clip-path="url(#clipPath2)" stroke="none"/>
      <rect x="625" y="179.3573" clip-path="url(#clipPath2)" fill="white" width="1" height="80" stroke="none"/>
      <rect x="626" y="179.3573" clip-path="url(#clipPath2)" fill="white" width="248" height="1" stroke="none"/>
      <rect x="626" y="258.3573" clip-path="url(#clipPath2)" fill="rgb(134,134,134)" width="249" height="1" stroke="none"/>
      <rect x="874" y="179.3573" clip-path="url(#clipPath2)" fill="rgb(134,134,134)" width="1" height="79" stroke="none"/>
    </g>
    <g font-size="35px" stroke-linecap="butt" transform="matrix(1,0,0,1,-366,-154)" text-rendering="geometricPrecision" font-family="sans-serif" shape-rendering="geometricPrecision" stroke-miterlimit="1.45">
      <text x="730.5574" xml:space="preserve" y="227.3724" clip-path="url(#clipPath2)" stroke="none">jar</text>
    </g>
    <g fill="silver" text-rendering="geometricPrecision" shape-rendering="geometricPrecision" transform="matrix(1,0,0,1,-366,-154)" stroke="silver">
      <rect x="615" width="250" height="80" y="189.3573" clip-path="url(#clipPath2)" stroke="none"/>
      <rect x="615" y="189.3573" clip-path="url(#clipPath2)" fill="white" width="1" height="80" stroke="none"/>
      <rect x="616" y="189.3573" clip-path="url(#clipPath2)" fill="white" width="248" height="1" stroke="none"/>
      <rect x="616" y="268.3573" clip-path="url(#clipPath2)" fill="rgb(134,134,134)" width="249" height="1" stroke="none"/>
      <rect x="864" y="189.3573" clip-path="url(#clipPath2)" fill="rgb(134,134,134)" width="1" height="79" stroke="none"/>
    </g>
    <g font-size="35px" stroke-linecap="butt" transform="matrix(1,0,0,1,-366,-154)" text-rendering="geometricPrecision" font-family="sans-serif" shape-rendering="geometricPrecision" stroke-miterlimit="1.45">
      <text x="720.5574" xml:space="preserve" y="237.3724" clip-path="url(#clipPath2)" stroke="none">jar</text>
    </g>
    <g fill="green" text-rendering="geometricPrecision" shape-rendering="geometricPrecision" transform="matrix(1,0,0,1,-366,-154)" stroke="green">
      <rect x="969.292" width="125" height="80" y="806.5557" clip-path="url(#clipPath2)" stroke="none"/>
      <rect x="969.292" y="806.5557" clip-path="url(#clipPath2)" fill="rgb(0,182,0)" width="1" height="80" stroke="none"/>
      <rect x="970.292" y="806.5557" clip-path="url(#clipPath2)" fill="rgb(0,182,0)" width="123" height="1" stroke="none"/>
      <rect x="970.292" y="885.5557" clip-path="url(#clipPath2)" fill="rgb(0,89,0)" width="124" height="1" stroke="none"/>
      <rect x="1093.292" y="806.5557" clip-path="url(#clipPath2)" fill="rgb(0,89,0)" width="1" height="79" stroke="none"/>
    </g>
    <g font-size="35px" stroke-linecap="butt" transform="matrix(1,0,0,1,-366,-154)" text-rendering="geometricPrecision" font-family="sans-serif" shape-rendering="geometricPrecision" stroke-miterlimit="1.45">
      <text x="994.8319" xml:space="preserve" y="854.5707" clip-path="url(#clipPath2)" stroke="none">tests</text>
    </g>
    <g fill="rgb(255,204,153)" text-rendering="geometricPrecision" shape-rendering="geometricPrecision" transform="matrix(1,0,0,1,-366,-154)" stroke="rgb(255,204,153)">
      <rect x="381.92" y="299.504" clip-path="url(#clipPath2)" width="764.872" rx="4" ry="4" height="449.8197" stroke="none"/>
      <rect x="405.24" y="314.504" clip-path="url(#clipPath2)" fill="silver" width="174.8" height="121.1616" stroke="none"/>
    </g>
    <g text-rendering="geometricPrecision" stroke-miterlimit="1.45" shape-rendering="geometricPrecision" transform="matrix(1,0,0,1,-366,-154)" stroke-linecap="butt">
      <rect fill="none" x="405.24" width="174.8" height="121.1616" y="314.504" clip-path="url(#clipPath2)"/>
      <text x="842.2" font-size="20px" y="698.9037" clip-path="url(#clipPath2)" font-family="sans-serif" stroke="none" xml:space="preserve">SAT</text>
      <text x="561.5701" font-size="20px" y="702.0008" clip-path="url(#clipPath2)" font-family="sans-serif" stroke="none" xml:space="preserve">UNSAT</text>
    </g>
    <g fill="white" text-rendering="geometricPrecision" shape-rendering="geometricPrecision" transform="matrix(1,0,0,1,-366,-154)" stroke="white">
      <rect x="416.64" width="152" height="30" y="399.304" clip-path="url(#clipPath2)" stroke="none"/>
    </g>
    <g text-rendering="geometricPrecision" stroke-miterlimit="1.45" stroke-width="2" shape-rendering="geometricPrecision" transform="matrix(1,0,0,1,-366,-154)" stroke-linecap="butt">
      <rect fill="none" x="416.64" width="152" height="30" y="399.304" clip-path="url(#clipPath2)"/>
      <text x="432.62" font-size="20px" y="418.884" clip-path="url(#clipPath2)" font-family="sans-serif" stroke="none" stroke-width="1" xml:space="preserve">instrumenting</text>
    </g>
    <g fill="white" text-rendering="geometricPrecision" shape-rendering="geometricPrecision" transform="matrix(1,0,0,1,-366,-154)" stroke="white">
      <rect x="416.64" width="152" height="30" y="360.0848" clip-path="url(#clipPath2)" stroke="none"/>
    </g>
    <g text-rendering="geometricPrecision" stroke-miterlimit="1.45" stroke-width="2" shape-rendering="geometricPrecision" transform="matrix(1,0,0,1,-366,-154)" stroke-linecap="butt">
      <rect fill="none" x="416.64" width="152" height="30" y="360.0848" clip-path="url(#clipPath2)"/>
      <text x="461.52" font-size="20px" y="379.6648" clip-path="url(#clipPath2)" font-family="sans-serif" stroke="none" stroke-width="1" xml:space="preserve">inlining</text>
    </g>
    <g fill="white" text-rendering="geometricPrecision" shape-rendering="geometricPrecision" transform="matrix(1,0,0,1,-366,-154)" stroke="white">
      <rect x="416.64" width="152" height="30" y="320.8656" clip-path="url(#clipPath2)" stroke="none"/>
    </g>
    <g text-rendering="geometricPrecision" stroke-miterlimit="1.45" stroke-width="2" shape-rendering="geometricPrecision" transform="matrix(1,0,0,1,-366,-154)" stroke-linecap="butt">
      <rect fill="none" x="416.64" width="152" height="30" y="320.8656" clip-path="url(#clipPath2)"/>
      <text x="433.17" font-size="20px" y="340.4456" clip-path="url(#clipPath2)" font-family="sans-serif" stroke="none" stroke-width="1" xml:space="preserve">loop unrolling</text>
    </g>
    <g fill="silver" text-rendering="geometricPrecision" shape-rendering="geometricPrecision" transform="matrix(1,0,0,1,-366,-154)" stroke="silver">
      <rect x="899.96" width="174.8" height="161.1616" y="455.3941" clip-path="url(#clipPath2)" stroke="none"/>
    </g>
    <g text-rendering="geometricPrecision" stroke-miterlimit="1.45" shape-rendering="geometricPrecision" transform="matrix(1,0,0,1,-366,-154)" stroke-linecap="butt">
      <rect fill="none" x="899.96" width="174.8" height="161.1616" y="455.3941" clip-path="url(#clipPath2)"/>
      <text x="979.02" font-size="20px" y="559.7742" clip-path="url(#clipPath2)" font-family="sans-serif" stroke="none" xml:space="preserve">...</text>
    </g>
    <g fill="white" text-rendering="geometricPrecision" shape-rendering="geometricPrecision" transform="matrix(1,0,0,1,-366,-154)" stroke="white">
      <rect x="911.36" width="152" height="30" y="500.9749" clip-path="url(#clipPath2)" stroke="none"/>
    </g>
    <g text-rendering="geometricPrecision" stroke-miterlimit="1.45" stroke-width="2" shape-rendering="geometricPrecision" transform="matrix(1,0,0,1,-366,-154)" stroke-linecap="butt">
      <rect fill="none" x="911.36" width="152" height="30" y="500.9749" clip-path="url(#clipPath2)"/>
      <text x="959.58" font-size="20px" y="520.5549" clip-path="url(#clipPath2)" font-family="sans-serif" stroke="none" stroke-width="1" xml:space="preserve">slicing</text>
    </g>
    <g fill="white" text-rendering="geometricPrecision" shape-rendering="geometricPrecision" transform="matrix(1,0,0,1,-366,-154)" stroke="white">
      <rect x="911.36" width="152" height="30" y="461.7557" clip-path="url(#clipPath2)" stroke="none"/>
    </g>
    <g text-rendering="geometricPrecision" stroke-miterlimit="1.45" stroke-width="2" shape-rendering="geometricPrecision" transform="matrix(1,0,0,1,-366,-154)" stroke-linecap="butt">
      <rect fill="none" x="911.36" width="152" height="30" y="461.7557" clip-path="url(#clipPath2)"/>
      <text x="930.6801" font-size="20px" y="481.3358" clip-path="url(#clipPath2)" font-family="sans-serif" stroke="none" stroke-width="1" xml:space="preserve">memspacing</text>
    </g>
    <g fill="white" text-rendering="geometricPrecision" shape-rendering="geometricPrecision" transform="matrix(1,0,0,1,-366,-154)" stroke="white">
      <rect x="911.36" width="152" height="30" y="579.4133" clip-path="url(#clipPath2)" stroke="none"/>
    </g>
    <g text-rendering="geometricPrecision" stroke-miterlimit="1.45" stroke-width="2" shape-rendering="geometricPrecision" transform="matrix(1,0,0,1,-366,-154)" stroke-linecap="butt">
      <rect fill="none" x="911.36" width="152" height="30" y="579.4133" clip-path="url(#clipPath2)"/>
      <text x="949.56" font-size="20px" y="598.9933" clip-path="url(#clipPath2)" font-family="sans-serif" stroke="none" stroke-width="1" xml:space="preserve">type info</text>
    </g>
    <g fill="rgb(204,255,255)" text-rendering="geometricPrecision" shape-rendering="geometricPrecision" transform="matrix(1,0,0,1,-366,-154)" stroke="rgb(204,255,255)">
      <rect x="677.5" width="125" height="80" y="344.6661" clip-path="url(#clipPath2)" stroke="none"/>
      <rect x="677.5" y="344.6661" clip-path="url(#clipPath2)" fill="white" width="1" height="80" stroke="none"/>
      <rect x="678.5" y="344.6661" clip-path="url(#clipPath2)" fill="white" width="123" height="1" stroke="none"/>
      <rect x="678.5" y="423.6661" clip-path="url(#clipPath2)" fill="rgb(142,178,178)" width="124" height="1" stroke="none"/>
      <rect x="801.5" y="344.6661" clip-path="url(#clipPath2)" fill="rgb(142,178,178)" width="1" height="79" stroke="none"/>
    </g>
    <g font-size="35px" stroke-linecap="butt" transform="matrix(1,0,0,1,-366,-154)" text-rendering="geometricPrecision" font-family="sans-serif" shape-rendering="geometricPrecision" stroke-miterlimit="1.45">
      <text x="704.0199" xml:space="preserve" y="392.6812" clip-path="url(#clipPath2)" stroke="none">KFG</text>
    </g>
    <g fill="url(#linearGradient1)" text-rendering="geometricPrecision" shape-rendering="geometricPrecision" transform="matrix(1,0,0,1,-366,-154)" stroke="url(#linearGradient1)">
      <path d="M695 517.3353 L721.3604 490.9749 L758.6396 490.9749 L785 517.3353 L785 554.6146 L758.6396 580.9749 L721.3604 580.9749 L695 554.6146 Z" fill-rule="evenodd" clip-path="url(#clipPath2)" stroke="none"/>
    </g>
    <g stroke-linecap="butt" transform="matrix(1,0,0,1,-366,-154)" fill="rgb(153,204,255)" text-rendering="geometricPrecision" shape-rendering="geometricPrecision" stroke="rgb(153,204,255)" stroke-width="2" stroke-miterlimit="1.45">
      <path fill="none" d="M695 517.3353 L721.3604 490.9749 L758.6396 490.9749 L785 517.3353 L785 554.6146 L758.6396 580.9749 L721.3604 580.9749 L695 554.6146 Z" fill-rule="evenodd" clip-path="url(#clipPath2)"/>
    </g>
    <g font-size="35px" stroke-linecap="butt" transform="matrix(1,0,0,1,-366,-154)" text-rendering="geometricPrecision" font-family="sans-serif" shape-rendering="geometricPrecision" stroke-miterlimit="1.45">
      <text x="716.6549" xml:space="preserve" y="543.99" clip-path="url(#clipPath2)" stroke="none">PS</text>
    </g>
    <g fill="rgb(153,153,153)" text-rendering="geometricPrecision" shape-rendering="geometricPrecision" transform="matrix(1,0,0,1,-366,-154)" stroke="rgb(153,153,153)">
      <rect x="677.5" width="125" height="80" y="654.3237" clip-path="url(#clipPath2)" stroke="none"/>
      <rect x="677.5" y="654.3237" clip-path="url(#clipPath2)" fill="rgb(218,218,218)" width="1" height="80" stroke="none"/>
      <rect x="678.5" y="654.3237" clip-path="url(#clipPath2)" fill="rgb(218,218,218)" width="123" height="1" stroke="none"/>
      <rect x="678.5" y="733.3237" clip-path="url(#clipPath2)" fill="rgb(107,107,107)" width="124" height="1" stroke="none"/>
      <rect x="801.5" y="654.3237" clip-path="url(#clipPath2)" fill="rgb(107,107,107)" width="1" height="79" stroke="none"/>
    </g>
    <g font-size="35px" stroke-linecap="butt" transform="matrix(1,0,0,1,-366,-154)" text-rendering="geometricPrecision" font-family="sans-serif" shape-rendering="geometricPrecision" stroke-miterlimit="1.45">
      <text x="703.0574" xml:space="preserve" y="702.3387" clip-path="url(#clipPath2)" stroke="none">SMT</text>
    </g>
    <g fill="rgb(153,204,255)" text-rendering="geometricPrecision" shape-rendering="geometricPrecision" transform="matrix(1,0,0,1,-366,-154)" stroke="rgb(153,204,255)">
      <rect x="931.792" width="200" height="80" y="654.3237" clip-path="url(#clipPath2)" stroke="none"/>
      <rect x="931.792" y="654.3237" clip-path="url(#clipPath2)" fill="rgb(218,255,255)" width="1" height="80" stroke="none"/>
      <rect x="932.792" y="654.3237" clip-path="url(#clipPath2)" fill="rgb(218,255,255)" width="198" height="1" stroke="none"/>
      <rect x="932.792" y="733.3237" clip-path="url(#clipPath2)" fill="rgb(107,142,178)" width="199" height="1" stroke="none"/>
      <rect x="1130.792" y="654.3237" clip-path="url(#clipPath2)" fill="rgb(107,142,178)" width="1" height="79" stroke="none"/>
    </g>
    <g font-size="35px" stroke-linecap="butt" transform="matrix(1,0,0,1,-366,-154)" text-rendering="geometricPrecision" font-family="sans-serif" shape-rendering="geometricPrecision" stroke-miterlimit="1.45">
      <text x="941.3517" xml:space="preserve" y="702.3387" clip-path="url(#clipPath2)" stroke="none">Reanimator</text>
      <text x="1070.54" xml:space="preserve" font-size="40px" y="338.664" clip-path="url(#clipPath2)" stroke="none">Kex</text>
    </g>
    <g fill="rgb(153,51,0)" text-rendering="geometricPrecision" shape-rendering="geometricPrecision" transform="matrix(1,0,0,1,-366,-154)" stroke="rgb(153,51,0)">
      <rect x="498.1908" width="200" height="80" y="806.5557" clip-path="url(#clipPath2)" stroke="none"/>
      <rect x="498.1908" y="806.5557" clip-path="url(#clipPath2)" fill="rgb(218,72,0)" width="1" height="80" stroke="none"/>
      <rect x="499.1908" y="806.5557" clip-path="url(#clipPath2)" fill="rgb(218,72,0)" width="198" height="1" stroke="none"/>
      <rect x="499.1908" y="885.5557" clip-path="url(#clipPath2)" fill="rgb(107,35,0)" width="199" height="1" stroke="none"/>
      <rect x="697.1908" y="806.5557" clip-path="url(#clipPath2)" fill="rgb(107,35,0)" width="1" height="79" stroke="none"/>
    </g>
    <g font-size="35px" stroke-linecap="butt" transform="matrix(1,0,0,1,-366,-154)" text-rendering="geometricPrecision" font-family="sans-serif" shape-rendering="geometricPrecision" stroke-miterlimit="1.45">
      <text x="501.888" xml:space="preserve" y="854.5707" clip-path="url(#clipPath2)" stroke="none">unreachable</text>
      <path fill="none" d="M740 269.36 L740 336.6637" clip-path="url(#clipPath2)"/>
      <path d="M740 344.6637 L745 332.6637 L740 335.6637 L735 332.6637 Z" stroke="none" clip-path="url(#clipPath2)"/>
    </g>
    <g stroke-linecap="butt" transform="matrix(1,0,0,1,-366,-154)" text-rendering="geometricPrecision" shape-rendering="geometricPrecision" stroke-dasharray="12,4" stroke-width="2" stroke-miterlimit="1.45">
      <path fill="none" d="M677.5228 350.2531 L612.62 314.504 L580.018 314.504" clip-path="url(#clipPath2)"/>
      <path fill="none" d="M677.5092 409.6065 L614.22 434.8656 L580.0552 434.8656" clip-path="url(#clipPath2)"/>
      <path fill="none" stroke-dasharray="none" d="M740 424.6729 L740 482.9487" stroke-width="1" clip-path="url(#clipPath2)"/>
      <path stroke-dasharray="none" d="M740 490.9487 L745 478.9487 L740 481.9487 L735 478.9487 Z" stroke-width="1" clip-path="url(#clipPath2)" stroke="none"/>
      <path fill="none" d="M777.1517 509.5147 L853.14 455.3941 L899.9662 455.3941" clip-path="url(#clipPath2)"/>
      <path fill="none" d="M779.1656 560.4426 L856.34 616.5557 L897.94 616.5557" clip-path="url(#clipPath2)"/>
      <path fill="none" stroke-dasharray="none" d="M740 581.0131 L740 646.3497" stroke-width="1" clip-path="url(#clipPath2)"/>
      <path stroke-dasharray="none" d="M740 654.3497 L745 642.3497 L740 645.3497 L735 642.3497 Z" stroke-width="1" clip-path="url(#clipPath2)" stroke="none"/>
      <path fill="none" stroke-dasharray="none" d="M802.5245 694.3237 L831.6138 694.3237" stroke-width="1" clip-path="url(#clipPath2)"/>
      <path stroke-dasharray="none" d="M839.6138 694.3237 L827.6138 689.3237 L830.6138 694.3237 L827.6138 699.3237 Z" stroke-width="1" clip-path="url(#clipPath2)" stroke="none"/>
      <path fill="none" stroke-dasharray="none" d="M677.4786 697.4208 L638.46 697.4208" stroke-width="1" clip-path="url(#clipPath2)"/>
      <path stroke-dasharray="none" d="M630.46 697.4208 L642.46 702.4208 L639.46 697.4208 L642.46 692.4208 Z" stroke-width="1" clip-path="url(#clipPath2)" stroke="none"/>
      <path fill="none" stroke-dasharray="none" d="M883.65 694.3237 L923.7889 694.3237" stroke-width="1" clip-path="url(#clipPath2)"/>
      <path stroke-dasharray="none" d="M931.7889 694.3237 L919.7889 689.3237 L922.7889 694.3237 L919.7889 699.3237 Z" stroke-width="1" clip-path="url(#clipPath2)" stroke="none"/>
      <path fill="none" stroke-dasharray="none" d="M1031.792 734.3516 L1031.792 798.5337" stroke-width="1" clip-path="url(#clipPath2)"/>
      <path stroke-dasharray="none" d="M1031.792 806.5337 L1036.792 794.5337 L1031.792 797.5337 L1026.792 794.5337 Z" stroke-width="1" clip-path="url(#clipPath2)" stroke="none"/>
      <path fill="none" stroke-dasharray="none" d="M595.46 712.4208 L595.46 798.5333" stroke-width="1" clip-path="url(#clipPath2)"/>
      <path stroke-dasharray="none" d="M595.46 806.5333 L600.46 794.5333 L595.46 797.5333 L590.46 794.5333 Z" stroke-width="1" clip-path="url(#clipPath2)" stroke="none"/>
    </g>
  </g>
</svg>
