<?xml version="1.0" encoding="UTF-8"?><svg xmlns="http://www.w3.org/2000/svg" xmlns:xlink="http://www.w3.org/1999/xlink" fill-opacity="1" color-rendering="auto" color-interpolation="auto" text-rendering="auto" stroke="black" stroke-linecap="square" width="1026" stroke-miterlimit="10" shape-rendering="auto" stroke-opacity="1" fill="black" stroke-dasharray="none" font-weight="normal" stroke-width="1" height="472" font-family="'Dialog'" font-style="normal" stroke-linejoin="miter" font-size="12px" stroke-dashoffset="0" image-rendering="auto">
  <!--Generated by ySVG 2.5-->
  <defs id="genericDefs"/>
  <g>
    <defs id="defs1">
      <clipPath clipPathUnits="userSpaceOnUse" id="clipPath1">
        <path d="M0 0 L1026 0 L1026 472 L0 472 L0 0 Z"/>
      </clipPath>
      <clipPath clipPathUnits="userSpaceOnUse" id="clipPath2">
        <path d="M1458 -34 L2484 -34 L2484 438 L1458 438 L1458 -34 Z"/>
      </clipPath>
    </defs>
    <g fill="silver" text-rendering="geometricPrecision" shape-rendering="geometricPrecision" transform="matrix(1,0,0,1,-1458,34)" stroke="silver">
      <rect x="2218.5045" width="250" height="80" y="31.907" clip-path="url(#clipPath2)" stroke="none"/>
    </g>
    <g text-rendering="geometricPrecision" stroke-miterlimit="1.45" shape-rendering="geometricPrecision" transform="matrix(1,0,0,1,-1458,34)" stroke-linecap="butt">
      <rect fill="none" x="2218.5045" width="250" height="80" y="31.907" clip-path="url(#clipPath2)"/>
      <text x="2230.5947" font-size="30px" y="17.2927" clip-path="url(#clipPath2)" font-family="sans-serif" stroke="none" xml:space="preserve">arrays</text>
    </g>
    <g fill="rgb(204,255,255)" text-rendering="geometricPrecision" shape-rendering="geometricPrecision" transform="matrix(1,0,0,1,-1458,34)" stroke="rgb(204,255,255)">
      <rect x="2218.5045" width="250" height="80" y="161.907" clip-path="url(#clipPath2)" stroke="none"/>
    </g>
    <g text-rendering="geometricPrecision" stroke-miterlimit="1.45" shape-rendering="geometricPrecision" transform="matrix(1,0,0,1,-1458,34)" stroke-linecap="butt">
      <rect fill="none" x="2218.5045" width="250" height="80" y="161.907" clip-path="url(#clipPath2)"/>
      <text x="2233.7002" font-size="30px" y="147.2927" clip-path="url(#clipPath2)" font-family="sans-serif" stroke="none" xml:space="preserve">...</text>
      <text x="2233.7002" font-size="30px" y="277.2928" clip-path="url(#clipPath2)" font-family="sans-serif" stroke="none" xml:space="preserve">...</text>
    </g>
    <g fill="silver" text-rendering="geometricPrecision" shape-rendering="geometricPrecision" transform="matrix(1,0,0,1,-1458,34)" stroke="silver">
      <rect x="2217.5305" width="250" height="80" y="291.907" clip-path="url(#clipPath2)" stroke="none"/>
    </g>
    <g text-rendering="geometricPrecision" stroke-miterlimit="1.45" shape-rendering="geometricPrecision" transform="matrix(1,0,0,1,-1458,34)" stroke-linecap="butt">
      <rect fill="none" x="2217.5305" width="250" height="80" y="291.907" clip-path="url(#clipPath2)"/>
    </g>
    <g fill="rgb(51,102,255)" text-rendering="geometricPrecision" shape-rendering="geometricPrecision" transform="matrix(1,0,0,1,-1458,34)" stroke="rgb(51,102,255)">
      <rect x="2254.0305" width="59" height="50" y="176.907" clip-path="url(#clipPath2)" stroke="none"/>
    </g>
    <g text-rendering="geometricPrecision" stroke-miterlimit="1.45" shape-rendering="geometricPrecision" transform="matrix(1,0,0,1,-1458,34)" stroke-linecap="butt">
      <rect fill="none" x="2254.0305" width="59" height="50" y="176.907" clip-path="url(#clipPath2)"/>
      <text x="2273.9871" font-size="30px" y="212.2927" clip-path="url(#clipPath2)" font-family="sans-serif" stroke="none" xml:space="preserve">3</text>
    </g>
    <g fill="rgb(51,102,255)" text-rendering="geometricPrecision" shape-rendering="geometricPrecision" transform="matrix(1,0,0,1,-1458,34)" stroke="rgb(51,102,255)">
      <rect x="2313.0305" width="59" height="50" y="176.907" clip-path="url(#clipPath2)" stroke="none"/>
    </g>
    <g text-rendering="geometricPrecision" stroke-miterlimit="1.45" shape-rendering="geometricPrecision" transform="matrix(1,0,0,1,-1458,34)" stroke-linecap="butt">
      <rect fill="none" x="2313.0305" width="59" height="50" y="176.907" clip-path="url(#clipPath2)"/>
      <text x="2332.9871" font-size="30px" y="212.2927" clip-path="url(#clipPath2)" font-family="sans-serif" stroke="none" xml:space="preserve">2</text>
      <text x="2387.2263" font-size="30px" y="212.2927" clip-path="url(#clipPath2)" font-family="sans-serif" stroke="none" xml:space="preserve">...</text>
    </g>
    <g fill="rgb(204,255,255)" text-rendering="geometricPrecision" shape-rendering="geometricPrecision" transform="matrix(1,0,0,1,-1458,34)" stroke="rgb(204,255,255)">
      <rect x="1473.158" width="59" height="50" y="206.907" clip-path="url(#clipPath2)" stroke="none"/>
    </g>
    <g text-rendering="geometricPrecision" stroke-miterlimit="1.45" shape-rendering="geometricPrecision" transform="matrix(1,0,0,1,-1458,34)" stroke-linecap="butt">
      <rect fill="none" x="1473.158" width="59" height="50" y="206.907" clip-path="url(#clipPath2)"/>
      <text x="1493.4661" font-size="30px" y="242.2927" clip-path="url(#clipPath2)" font-family="sans-serif" stroke="none" xml:space="preserve">a</text>
    </g>
    <g fill="rgb(255,153,0)" text-rendering="geometricPrecision" shape-rendering="geometricPrecision" transform="matrix(1,0,0,1,-1458,34)" stroke="rgb(255,153,0)">
      <rect x="1473.158" width="59" height="50" y="106.907" clip-path="url(#clipPath2)" stroke="none"/>
    </g>
    <g text-rendering="geometricPrecision" stroke-miterlimit="1.45" shape-rendering="geometricPrecision" transform="matrix(1,0,0,1,-1458,34)" stroke-linecap="butt">
      <rect fill="none" x="1473.158" width="59" height="50" y="106.907" clip-path="url(#clipPath2)"/>
      <text x="1493.1365" font-size="30px" y="142.2927" clip-path="url(#clipPath2)" font-family="sans-serif" stroke="none" xml:space="preserve">p</text>
    </g>
    <g fill="rgb(153,51,0)" text-rendering="geometricPrecision" shape-rendering="geometricPrecision" transform="matrix(1,0,0,1,-1458,34)" stroke="rgb(153,51,0)">
      <rect x="1637.1405" width="59" height="50" y="106.907" clip-path="url(#clipPath2)" stroke="none"/>
    </g>
    <g text-rendering="geometricPrecision" stroke-miterlimit="1.45" shape-rendering="geometricPrecision" transform="matrix(1,0,0,1,-1458,34)" stroke-linecap="butt">
      <rect fill="none" x="1637.1405" width="59" height="50" y="106.907" clip-path="url(#clipPath2)"/>
      <text x="1647.5536" font-size="30px" y="142.2927" clip-path="url(#clipPath2)" font-family="sans-serif" stroke="none" xml:space="preserve">10</text>
    </g>
    <g fill="silver" text-rendering="geometricPrecision" shape-rendering="geometricPrecision" transform="matrix(1,0,0,1,-1458,34)" stroke="silver">
      <rect x="1637.1405" width="59" height="50" y="156.907" clip-path="url(#clipPath2)" stroke="none"/>
    </g>
    <g text-rendering="geometricPrecision" stroke-miterlimit="1.45" shape-rendering="geometricPrecision" transform="matrix(1,0,0,1,-1458,34)" stroke-linecap="butt">
      <rect fill="none" x="1637.1405" width="59" height="50" y="156.907" clip-path="url(#clipPath2)"/>
    </g>
    <g fill="blue" text-rendering="geometricPrecision" shape-rendering="geometricPrecision" transform="matrix(1,0,0,1,-1458,34)" stroke="blue">
      <rect x="1637.1405" width="59" height="50" y="206.907" clip-path="url(#clipPath2)" stroke="none"/>
    </g>
    <g text-rendering="geometricPrecision" stroke-miterlimit="1.45" shape-rendering="geometricPrecision" transform="matrix(1,0,0,1,-1458,34)" stroke-linecap="butt">
      <rect fill="none" x="1637.1405" width="59" height="50" y="206.907" clip-path="url(#clipPath2)"/>
    </g>
    <g fill="silver" text-rendering="geometricPrecision" shape-rendering="geometricPrecision" transform="matrix(1,0,0,1,-1458,34)" stroke="silver">
      <rect x="1637.1405" width="59" height="50" y="256.907" clip-path="url(#clipPath2)" stroke="none"/>
    </g>
    <g text-rendering="geometricPrecision" stroke-miterlimit="1.45" shape-rendering="geometricPrecision" transform="matrix(1,0,0,1,-1458,34)" stroke-linecap="butt">
      <rect fill="none" x="1637.1405" width="59" height="50" y="256.907" clip-path="url(#clipPath2)"/>
    </g>
    <g fill="rgb(51,153,102)" text-rendering="geometricPrecision" shape-rendering="geometricPrecision" transform="matrix(1,0,0,1,-1458,34)" stroke="rgb(51,153,102)">
      <rect x="1637.1405" width="59" height="50" y="6.907" clip-path="url(#clipPath2)" stroke="none"/>
    </g>
    <g text-rendering="geometricPrecision" stroke-miterlimit="1.45" shape-rendering="geometricPrecision" transform="matrix(1,0,0,1,-1458,34)" stroke-linecap="butt">
      <rect fill="none" x="1637.1405" width="59" height="50" y="6.907" clip-path="url(#clipPath2)"/>
      <text x="1652.3363" font-size="30px" y="92.2927" clip-path="url(#clipPath2)" font-family="sans-serif" stroke="none" xml:space="preserve">...</text>
    </g>
    <g fill="silver" text-rendering="geometricPrecision" shape-rendering="geometricPrecision" transform="matrix(1,0,0,1,-1458,34)" stroke="silver">
      <rect x="1637.1405" width="59" height="50" y="356.907" clip-path="url(#clipPath2)" stroke="none"/>
    </g>
    <g text-rendering="geometricPrecision" stroke-miterlimit="1.45" shape-rendering="geometricPrecision" transform="matrix(1,0,0,1,-1458,34)" stroke-linecap="butt">
      <rect fill="none" x="1637.1405" width="59" height="50" y="356.907" clip-path="url(#clipPath2)"/>
      <text x="1652.3363" font-size="30px" y="342.2928" clip-path="url(#clipPath2)" font-family="sans-serif" stroke="none" xml:space="preserve">...</text>
    </g>
    <g fill="lime" text-rendering="geometricPrecision" shape-rendering="geometricPrecision" transform="matrix(1,0,0,1,-1458,34)" stroke="lime">
      <rect x="1473.158" width="59" height="50" y="6.907" clip-path="url(#clipPath2)" stroke="none"/>
    </g>
    <g text-rendering="geometricPrecision" stroke-miterlimit="1.45" shape-rendering="geometricPrecision" transform="matrix(1,0,0,1,-1458,34)" stroke-linecap="butt">
      <rect fill="none" x="1473.158" width="59" height="50" y="6.907" clip-path="url(#clipPath2)"/>
      <text x="1493.4807" font-size="30px" y="42.2927" clip-path="url(#clipPath2)" font-family="sans-serif" stroke="none" xml:space="preserve">o</text>
    </g>
    <g fill="silver" text-rendering="geometricPrecision" shape-rendering="geometricPrecision" transform="matrix(1,0,0,1,-1458,34)" stroke="silver">
      <rect x="1797.9065" width="59" height="50" y="166.0774" clip-path="url(#clipPath2)" stroke="none"/>
    </g>
    <g text-rendering="geometricPrecision" stroke-miterlimit="1.45" shape-rendering="geometricPrecision" transform="matrix(1,0,0,1,-1458,34)" stroke-linecap="butt">
      <rect fill="none" x="1797.9065" width="59" height="50" y="166.0774" clip-path="url(#clipPath2)"/>
    </g>
    <g fill="silver" text-rendering="geometricPrecision" shape-rendering="geometricPrecision" transform="matrix(1,0,0,1,-1458,34)" stroke="silver">
      <rect x="2087.7385" width="59" height="50" y="166.0774" clip-path="url(#clipPath2)" stroke="none"/>
    </g>
    <g text-rendering="geometricPrecision" stroke-miterlimit="1.45" shape-rendering="geometricPrecision" transform="matrix(1,0,0,1,-1458,34)" stroke-linecap="butt">
      <rect fill="none" x="2087.7385" width="59" height="50" y="166.0774" clip-path="url(#clipPath2)"/>
    </g>
    <g fill="lime" text-rendering="geometricPrecision" shape-rendering="geometricPrecision" transform="matrix(1,0,0,1,-1458,34)" stroke="lime">
      <rect x="1913.3225" width="59" height="50" y="166.0774" clip-path="url(#clipPath2)" stroke="none"/>
    </g>
    <g text-rendering="geometricPrecision" stroke-miterlimit="1.45" shape-rendering="geometricPrecision" transform="matrix(1,0,0,1,-1458,34)" stroke-linecap="butt">
      <rect fill="none" x="1913.3225" width="59" height="50" y="166.0774" clip-path="url(#clipPath2)"/>
      <text x="1933.2791" font-size="30px" y="201.4632" clip-path="url(#clipPath2)" font-family="sans-serif" stroke="none" xml:space="preserve">7</text>
    </g>
    <g fill="silver" text-rendering="geometricPrecision" shape-rendering="geometricPrecision" transform="matrix(1,0,0,1,-1458,34)" stroke="silver">
      <rect x="1972.3225" width="59" height="50" y="166.0774" clip-path="url(#clipPath2)" stroke="none"/>
    </g>
    <g text-rendering="geometricPrecision" stroke-miterlimit="1.45" shape-rendering="geometricPrecision" transform="matrix(1,0,0,1,-1458,34)" stroke-linecap="butt">
      <rect fill="none" x="1972.3225" width="59" height="50" y="166.0774" clip-path="url(#clipPath2)"/>
    </g>
    <g fill="silver" text-rendering="geometricPrecision" shape-rendering="geometricPrecision" transform="matrix(1,0,0,1,-1458,34)" stroke="silver">
      <rect x="1797.9065" width="59" height="50" y="39.0774" clip-path="url(#clipPath2)" stroke="none"/>
    </g>
    <g text-rendering="geometricPrecision" stroke-miterlimit="1.45" shape-rendering="geometricPrecision" transform="matrix(1,0,0,1,-1458,34)" stroke-linecap="butt">
      <rect fill="none" x="1797.9065" width="59" height="50" y="39.0774" clip-path="url(#clipPath2)"/>
    </g>
    <g fill="silver" text-rendering="geometricPrecision" shape-rendering="geometricPrecision" transform="matrix(1,0,0,1,-1458,34)" stroke="silver">
      <rect x="2087.7385" width="59" height="50" y="39.0774" clip-path="url(#clipPath2)" stroke="none"/>
    </g>
    <g text-rendering="geometricPrecision" stroke-miterlimit="1.45" shape-rendering="geometricPrecision" transform="matrix(1,0,0,1,-1458,34)" stroke-linecap="butt">
      <rect fill="none" x="2087.7385" width="59" height="50" y="39.0774" clip-path="url(#clipPath2)"/>
    </g>
    <g fill="lime" text-rendering="geometricPrecision" shape-rendering="geometricPrecision" transform="matrix(1,0,0,1,-1458,34)" stroke="lime">
      <rect x="1910.7385" width="59" height="50" y="39.0774" clip-path="url(#clipPath2)" stroke="none"/>
    </g>
    <g text-rendering="geometricPrecision" stroke-miterlimit="1.45" shape-rendering="geometricPrecision" transform="matrix(1,0,0,1,-1458,34)" stroke-linecap="butt">
      <rect fill="none" x="1910.7385" width="59" height="50" y="39.0774" clip-path="url(#clipPath2)"/>
      <text x="1930.6951" font-size="30px" y="74.4632" clip-path="url(#clipPath2)" font-family="sans-serif" stroke="none" xml:space="preserve">0</text>
    </g>
    <g fill="silver" text-rendering="geometricPrecision" shape-rendering="geometricPrecision" transform="matrix(1,0,0,1,-1458,34)" stroke="silver">
      <rect x="1969.7385" width="59" height="50" y="39.0774" clip-path="url(#clipPath2)" stroke="none"/>
    </g>
    <g text-rendering="geometricPrecision" stroke-miterlimit="1.45" shape-rendering="geometricPrecision" transform="matrix(1,0,0,1,-1458,34)" stroke-linecap="butt">
      <rect fill="none" x="1969.7385" width="59" height="50" y="39.0774" clip-path="url(#clipPath2)"/>
      <text x="1792.5188" font-size="30px" y="151.4632" clip-path="url(#clipPath2)" font-family="sans-serif" stroke="none" xml:space="preserve">example/Point.y</text>
      <text x="1792.5188" font-size="30px" y="24.4631" clip-path="url(#clipPath2)" font-family="sans-serif" stroke="none" xml:space="preserve">example/Point.x</text>
      <text x="1869.5183" font-size="30px" y="71.4632" clip-path="url(#clipPath2)" font-family="sans-serif" stroke="none" xml:space="preserve">...</text>
      <text x="2043.9343" font-size="30px" y="74.4632" clip-path="url(#clipPath2)" font-family="sans-serif" stroke="none" xml:space="preserve">...</text>
      <text x="2043.9343" font-size="30px" y="201.4632" clip-path="url(#clipPath2)" font-family="sans-serif" stroke="none" xml:space="preserve">...</text>
      <text x="1866.9343" font-size="30px" y="201.4632" clip-path="url(#clipPath2)" font-family="sans-serif" stroke="none" xml:space="preserve">...</text>
    </g>
    <g fill="silver" text-rendering="geometricPrecision" shape-rendering="geometricPrecision" transform="matrix(1,0,0,1,-1458,34)" stroke="silver">
      <rect x="1797.9065" width="59" height="50" y="291.907" clip-path="url(#clipPath2)" stroke="none"/>
    </g>
    <g text-rendering="geometricPrecision" stroke-miterlimit="1.45" shape-rendering="geometricPrecision" transform="matrix(1,0,0,1,-1458,34)" stroke-linecap="butt">
      <rect fill="none" x="1797.9065" width="59" height="50" y="291.907" clip-path="url(#clipPath2)"/>
    </g>
    <g fill="silver" text-rendering="geometricPrecision" shape-rendering="geometricPrecision" transform="matrix(1,0,0,1,-1458,34)" stroke="silver">
      <rect x="2087.7385" width="59" height="50" y="291.907" clip-path="url(#clipPath2)" stroke="none"/>
    </g>
    <g text-rendering="geometricPrecision" stroke-miterlimit="1.45" shape-rendering="geometricPrecision" transform="matrix(1,0,0,1,-1458,34)" stroke-linecap="butt">
      <rect fill="none" x="2087.7385" width="59" height="50" y="291.907" clip-path="url(#clipPath2)"/>
    </g>
    <g fill="rgb(204,255,255)" text-rendering="geometricPrecision" shape-rendering="geometricPrecision" transform="matrix(1,0,0,1,-1458,34)" stroke="rgb(204,255,255)">
      <rect x="1913.3225" width="59" height="50" y="291.907" clip-path="url(#clipPath2)" stroke="none"/>
    </g>
    <g text-rendering="geometricPrecision" stroke-miterlimit="1.45" shape-rendering="geometricPrecision" transform="matrix(1,0,0,1,-1458,34)" stroke-linecap="butt">
      <rect fill="none" x="1913.3225" width="59" height="50" y="291.907" clip-path="url(#clipPath2)"/>
      <text x="1933.2791" font-size="30px" y="327.2928" clip-path="url(#clipPath2)" font-family="sans-serif" stroke="none" xml:space="preserve">2</text>
    </g>
    <g fill="silver" text-rendering="geometricPrecision" shape-rendering="geometricPrecision" transform="matrix(1,0,0,1,-1458,34)" stroke="silver">
      <rect x="1972.3225" width="59" height="50" y="291.907" clip-path="url(#clipPath2)" stroke="none"/>
    </g>
    <g text-rendering="geometricPrecision" stroke-miterlimit="1.45" shape-rendering="geometricPrecision" transform="matrix(1,0,0,1,-1458,34)" stroke-linecap="butt">
      <rect fill="none" x="1972.3225" width="59" height="50" y="291.907" clip-path="url(#clipPath2)"/>
      <text x="1789.426" font-size="30px" y="281.4631" clip-path="url(#clipPath2)" font-family="sans-serif" stroke="none" xml:space="preserve">length</text>
      <text x="2043.9343" font-size="30px" y="327.2928" clip-path="url(#clipPath2)" font-family="sans-serif" stroke="none" xml:space="preserve">...</text>
      <text x="1866.9343" font-size="30px" y="327.2928" clip-path="url(#clipPath2)" font-family="sans-serif" stroke="none" xml:space="preserve">...</text>
      <path fill="none" d="M1502.658 256.907 L1502.658 422.9688 L2171.75 422.9688 L2171.75 201.907 L2210.5044 201.907" clip-path="url(#clipPath2)"/>
      <path d="M2218.5044 201.907 L2206.5044 196.907 L2209.5044 201.907 L2206.5044 206.907 Z" clip-path="url(#clipPath2)" stroke="none"/>
      <path fill="none" d="M1532.158 131.907 L1629.1405 131.907" clip-path="url(#clipPath2)"/>
      <path d="M1637.1405 131.907 L1625.1405 126.907 L1628.1405 131.907 L1625.1405 136.907 Z" clip-path="url(#clipPath2)" stroke="none"/>
      <path fill="none" d="M1532.158 231.907 L1629.1405 231.907" clip-path="url(#clipPath2)"/>
      <path d="M1637.1405 231.907 L1625.1405 226.907 L1628.1405 231.907 L1625.1405 236.907 Z" clip-path="url(#clipPath2)" stroke="none"/>
      <path fill="none" d="M1532.158 31.907 L1629.1405 31.907" clip-path="url(#clipPath2)"/>
      <path d="M1637.1405 31.907 L1625.1405 26.907 L1628.1405 31.907 L1625.1405 36.907 Z" clip-path="url(#clipPath2)" stroke="none"/>
      <path fill="none" d="M1502.658 6.907 L1502.658 -9.7594 L1725.6405 -9.7594 L1751.8398 -9.7594 L1751.8398 249.7798 L1942.8225 249.7798 L1942.8225 224.0774" clip-path="url(#clipPath2)"/>
      <path d="M1942.8225 216.0774 L1937.8225 228.0774 L1942.8225 225.0774 L1947.8225 228.0774 Z" clip-path="url(#clipPath2)" stroke="none"/>
      <path fill="none" d="M1502.658 6.907 L1502.658 -9.7594 L1751.8398 -9.7594 L1751.8398 113.2406 L1940.2385 113.2406 L1940.2385 97.0774" clip-path="url(#clipPath2)"/>
      <path d="M1940.2385 89.0774 L1935.2385 101.0774 L1940.2385 98.0774 L1945.2385 101.0774 Z" clip-path="url(#clipPath2)" stroke="none"/>
      <path fill="none" d="M1502.658 256.907 L1502.658 422.7639 L1942.8225 422.7639 L1942.8225 349.907" clip-path="url(#clipPath2)"/>
      <path d="M1942.8225 341.907 L1937.8225 353.907 L1942.8225 350.907 L1947.8225 353.907 Z" clip-path="url(#clipPath2)" stroke="none"/>
    </g>
  </g>
</svg>
