<?xml version="1.0" encoding="UTF-8"?><svg xmlns="http://www.w3.org/2000/svg" xmlns:xlink="http://www.w3.org/1999/xlink" fill-opacity="1" color-rendering="auto" color-interpolation="auto" text-rendering="auto" stroke="black" stroke-linecap="square" width="839" stroke-miterlimit="10" shape-rendering="auto" stroke-opacity="1" fill="black" stroke-dasharray="none" font-weight="normal" stroke-width="1" height="465" font-family="'Dialog'" font-style="normal" stroke-linejoin="miter" font-size="12px" stroke-dashoffset="0" image-rendering="auto">
  <!--Generated by ySVG 2.5-->
  <defs id="genericDefs"/>
  <g>
    <defs id="defs1">
      <clipPath clipPathUnits="userSpaceOnUse" id="clipPath1">
        <path d="M0 0 L839 0 L839 465 L0 465 L0 0 Z"/>
      </clipPath>
      <clipPath clipPathUnits="userSpaceOnUse" id="clipPath2">
        <path d="M308 498 L1147 498 L1147 963 L308 963 L308 498 Z"/>
      </clipPath>
    </defs>
    <g fill="rgb(204,255,255)" text-rendering="geometricPrecision" shape-rendering="geometricPrecision" transform="matrix(1,0,0,1,-308,-498)" stroke="rgb(204,255,255)">
      <rect x="323.3455" width="59" height="50" y="731.814" clip-path="url(#clipPath2)" stroke="none"/>
    </g>
    <g text-rendering="geometricPrecision" stroke-miterlimit="1.45" shape-rendering="geometricPrecision" transform="matrix(1,0,0,1,-308,-498)" stroke-linecap="butt">
      <rect fill="none" x="323.3455" width="59" height="50" y="731.814" clip-path="url(#clipPath2)"/>
      <text x="343.6536" font-size="30px" y="767.1998" clip-path="url(#clipPath2)" font-family="sans-serif" stroke="none" xml:space="preserve">a</text>
    </g>
    <g fill="rgb(255,153,0)" text-rendering="geometricPrecision" shape-rendering="geometricPrecision" transform="matrix(1,0,0,1,-308,-498)" stroke="rgb(255,153,0)">
      <rect x="323.3455" width="59" height="50" y="631.814" clip-path="url(#clipPath2)" stroke="none"/>
    </g>
    <g text-rendering="geometricPrecision" stroke-miterlimit="1.45" shape-rendering="geometricPrecision" transform="matrix(1,0,0,1,-308,-498)" stroke-linecap="butt">
      <rect fill="none" x="323.3455" width="59" height="50" y="631.814" clip-path="url(#clipPath2)"/>
      <text x="343.324" font-size="30px" y="667.1998" clip-path="url(#clipPath2)" font-family="sans-serif" stroke="none" xml:space="preserve">p</text>
    </g>
    <g fill="rgb(153,51,0)" text-rendering="geometricPrecision" shape-rendering="geometricPrecision" transform="matrix(1,0,0,1,-308,-498)" stroke="rgb(153,51,0)">
      <rect x="487.328" width="59" height="50" y="631.814" clip-path="url(#clipPath2)" stroke="none"/>
    </g>
    <g text-rendering="geometricPrecision" stroke-miterlimit="1.45" shape-rendering="geometricPrecision" transform="matrix(1,0,0,1,-308,-498)" stroke-linecap="butt">
      <rect fill="none" x="487.328" width="59" height="50" y="631.814" clip-path="url(#clipPath2)"/>
      <text x="497.7411" font-size="30px" y="667.1998" clip-path="url(#clipPath2)" font-family="sans-serif" stroke="none" xml:space="preserve">10</text>
    </g>
    <g fill="silver" text-rendering="geometricPrecision" shape-rendering="geometricPrecision" transform="matrix(1,0,0,1,-308,-498)" stroke="silver">
      <rect x="487.328" width="59" height="50" y="681.814" clip-path="url(#clipPath2)" stroke="none"/>
    </g>
    <g text-rendering="geometricPrecision" stroke-miterlimit="1.45" shape-rendering="geometricPrecision" transform="matrix(1,0,0,1,-308,-498)" stroke-linecap="butt">
      <rect fill="none" x="487.328" width="59" height="50" y="681.814" clip-path="url(#clipPath2)"/>
    </g>
    <g fill="rgb(51,102,255)" text-rendering="geometricPrecision" shape-rendering="geometricPrecision" transform="matrix(1,0,0,1,-308,-498)" stroke="rgb(51,102,255)">
      <rect x="487.328" width="59" height="50" y="731.814" clip-path="url(#clipPath2)" stroke="none"/>
    </g>
    <g text-rendering="geometricPrecision" stroke-miterlimit="1.45" shape-rendering="geometricPrecision" transform="matrix(1,0,0,1,-308,-498)" stroke-linecap="butt">
      <rect fill="none" x="487.328" width="59" height="50" y="731.814" clip-path="url(#clipPath2)"/>
      <text x="507.2845" font-size="30px" y="767.1998" clip-path="url(#clipPath2)" font-family="sans-serif" stroke="none" xml:space="preserve">3</text>
    </g>
    <g fill="rgb(51,102,255)" text-rendering="geometricPrecision" shape-rendering="geometricPrecision" transform="matrix(1,0,0,1,-308,-498)" stroke="rgb(51,102,255)">
      <rect x="487.328" width="59" height="50" y="781.814" clip-path="url(#clipPath2)" stroke="none"/>
    </g>
    <g text-rendering="geometricPrecision" stroke-miterlimit="1.45" shape-rendering="geometricPrecision" transform="matrix(1,0,0,1,-308,-498)" stroke-linecap="butt">
      <rect fill="none" x="487.328" width="59" height="50" y="781.814" clip-path="url(#clipPath2)"/>
      <text x="507.2845" font-size="30px" y="817.1998" clip-path="url(#clipPath2)" font-family="sans-serif" stroke="none" xml:space="preserve">2</text>
    </g>
    <g fill="rgb(51,153,102)" text-rendering="geometricPrecision" shape-rendering="geometricPrecision" transform="matrix(1,0,0,1,-308,-498)" stroke="rgb(51,153,102)">
      <rect x="487.328" width="59" height="50" y="531.814" clip-path="url(#clipPath2)" stroke="none"/>
    </g>
    <g text-rendering="geometricPrecision" stroke-miterlimit="1.45" shape-rendering="geometricPrecision" transform="matrix(1,0,0,1,-308,-498)" stroke-linecap="butt">
      <rect fill="none" x="487.328" width="59" height="50" y="531.814" clip-path="url(#clipPath2)"/>
      <text x="502.5238" font-size="30px" y="617.1998" clip-path="url(#clipPath2)" font-family="sans-serif" stroke="none" xml:space="preserve">...</text>
    </g>
    <g fill="silver" text-rendering="geometricPrecision" shape-rendering="geometricPrecision" transform="matrix(1,0,0,1,-308,-498)" stroke="silver">
      <rect x="487.328" width="59" height="50" y="881.814" clip-path="url(#clipPath2)" stroke="none"/>
    </g>
    <g text-rendering="geometricPrecision" stroke-miterlimit="1.45" shape-rendering="geometricPrecision" transform="matrix(1,0,0,1,-308,-498)" stroke-linecap="butt">
      <rect fill="none" x="487.328" width="59" height="50" y="881.814" clip-path="url(#clipPath2)"/>
      <text x="502.5238" font-size="30px" y="867.1998" clip-path="url(#clipPath2)" font-family="sans-serif" stroke="none" xml:space="preserve">...</text>
      <text x="559.451" font-size="30px" y="765.6607" clip-path="url(#clipPath2)" font-family="sans-serif" stroke="none" xml:space="preserve">a[0]</text>
      <text x="559.451" font-size="30px" y="815.6607" clip-path="url(#clipPath2)" font-family="sans-serif" stroke="none" xml:space="preserve">a[1]</text>
    </g>
    <g fill="lime" text-rendering="geometricPrecision" shape-rendering="geometricPrecision" transform="matrix(1,0,0,1,-308,-498)" stroke="lime">
      <rect x="323.3455" width="59" height="50" y="531.814" clip-path="url(#clipPath2)" stroke="none"/>
    </g>
    <g text-rendering="geometricPrecision" stroke-miterlimit="1.45" shape-rendering="geometricPrecision" transform="matrix(1,0,0,1,-308,-498)" stroke-linecap="butt">
      <rect fill="none" x="323.3455" width="59" height="50" y="531.814" clip-path="url(#clipPath2)"/>
      <text x="343.6682" font-size="30px" y="567.1998" clip-path="url(#clipPath2)" font-family="sans-serif" stroke="none" xml:space="preserve">o</text>
    </g>
    <g fill="silver" text-rendering="geometricPrecision" shape-rendering="geometricPrecision" transform="matrix(1,0,0,1,-308,-498)" stroke="silver">
      <rect x="782.496" width="59" height="50" y="690.9844" clip-path="url(#clipPath2)" stroke="none"/>
    </g>
    <g text-rendering="geometricPrecision" stroke-miterlimit="1.45" shape-rendering="geometricPrecision" transform="matrix(1,0,0,1,-308,-498)" stroke-linecap="butt">
      <rect fill="none" x="782.496" width="59" height="50" y="690.9844" clip-path="url(#clipPath2)"/>
    </g>
    <g fill="silver" text-rendering="geometricPrecision" shape-rendering="geometricPrecision" transform="matrix(1,0,0,1,-308,-498)" stroke="silver">
      <rect x="1072.328" width="59" height="50" y="690.9844" clip-path="url(#clipPath2)" stroke="none"/>
    </g>
    <g text-rendering="geometricPrecision" stroke-miterlimit="1.45" shape-rendering="geometricPrecision" transform="matrix(1,0,0,1,-308,-498)" stroke-linecap="butt">
      <rect fill="none" x="1072.328" width="59" height="50" y="690.9844" clip-path="url(#clipPath2)"/>
    </g>
    <g fill="lime" text-rendering="geometricPrecision" shape-rendering="geometricPrecision" transform="matrix(1,0,0,1,-308,-498)" stroke="lime">
      <rect x="897.912" width="59" height="50" y="690.9844" clip-path="url(#clipPath2)" stroke="none"/>
    </g>
    <g text-rendering="geometricPrecision" stroke-miterlimit="1.45" shape-rendering="geometricPrecision" transform="matrix(1,0,0,1,-308,-498)" stroke-linecap="butt">
      <rect fill="none" x="897.912" width="59" height="50" y="690.9844" clip-path="url(#clipPath2)"/>
      <text x="917.8685" font-size="30px" y="726.3702" clip-path="url(#clipPath2)" font-family="sans-serif" stroke="none" xml:space="preserve">7</text>
    </g>
    <g fill="silver" text-rendering="geometricPrecision" shape-rendering="geometricPrecision" transform="matrix(1,0,0,1,-308,-498)" stroke="silver">
      <rect x="956.912" width="59" height="50" y="690.9844" clip-path="url(#clipPath2)" stroke="none"/>
    </g>
    <g text-rendering="geometricPrecision" stroke-miterlimit="1.45" shape-rendering="geometricPrecision" transform="matrix(1,0,0,1,-308,-498)" stroke-linecap="butt">
      <rect fill="none" x="956.912" width="59" height="50" y="690.9844" clip-path="url(#clipPath2)"/>
    </g>
    <g fill="silver" text-rendering="geometricPrecision" shape-rendering="geometricPrecision" transform="matrix(1,0,0,1,-308,-498)" stroke="silver">
      <rect x="782.496" width="59" height="50" y="563.9844" clip-path="url(#clipPath2)" stroke="none"/>
    </g>
    <g text-rendering="geometricPrecision" stroke-miterlimit="1.45" shape-rendering="geometricPrecision" transform="matrix(1,0,0,1,-308,-498)" stroke-linecap="butt">
      <rect fill="none" x="782.496" width="59" height="50" y="563.9844" clip-path="url(#clipPath2)"/>
    </g>
    <g fill="silver" text-rendering="geometricPrecision" shape-rendering="geometricPrecision" transform="matrix(1,0,0,1,-308,-498)" stroke="silver">
      <rect x="1072.328" width="59" height="50" y="563.9844" clip-path="url(#clipPath2)" stroke="none"/>
    </g>
    <g text-rendering="geometricPrecision" stroke-miterlimit="1.45" shape-rendering="geometricPrecision" transform="matrix(1,0,0,1,-308,-498)" stroke-linecap="butt">
      <rect fill="none" x="1072.328" width="59" height="50" y="563.9844" clip-path="url(#clipPath2)"/>
    </g>
    <g fill="lime" text-rendering="geometricPrecision" shape-rendering="geometricPrecision" transform="matrix(1,0,0,1,-308,-498)" stroke="lime">
      <rect x="895.328" width="59" height="50" y="563.9844" clip-path="url(#clipPath2)" stroke="none"/>
    </g>
    <g text-rendering="geometricPrecision" stroke-miterlimit="1.45" shape-rendering="geometricPrecision" transform="matrix(1,0,0,1,-308,-498)" stroke-linecap="butt">
      <rect fill="none" x="895.328" width="59" height="50" y="563.9844" clip-path="url(#clipPath2)"/>
      <text x="915.2845" font-size="30px" y="599.3702" clip-path="url(#clipPath2)" font-family="sans-serif" stroke="none" xml:space="preserve">0</text>
    </g>
    <g fill="silver" text-rendering="geometricPrecision" shape-rendering="geometricPrecision" transform="matrix(1,0,0,1,-308,-498)" stroke="silver">
      <rect x="954.328" width="59" height="50" y="563.9844" clip-path="url(#clipPath2)" stroke="none"/>
    </g>
    <g text-rendering="geometricPrecision" stroke-miterlimit="1.45" shape-rendering="geometricPrecision" transform="matrix(1,0,0,1,-308,-498)" stroke-linecap="butt">
      <rect fill="none" x="954.328" width="59" height="50" y="563.9844" clip-path="url(#clipPath2)"/>
      <text x="777.1083" font-size="30px" y="676.3702" clip-path="url(#clipPath2)" font-family="sans-serif" stroke="none" xml:space="preserve">example/Point.y</text>
      <text x="777.1083" font-size="30px" y="549.3702" clip-path="url(#clipPath2)" font-family="sans-serif" stroke="none" xml:space="preserve">example/Point.x</text>
      <text x="854.1078" font-size="30px" y="596.3702" clip-path="url(#clipPath2)" font-family="sans-serif" stroke="none" xml:space="preserve">...</text>
      <text x="1028.5238" font-size="30px" y="599.3702" clip-path="url(#clipPath2)" font-family="sans-serif" stroke="none" xml:space="preserve">...</text>
      <text x="1028.5238" font-size="30px" y="726.3702" clip-path="url(#clipPath2)" font-family="sans-serif" stroke="none" xml:space="preserve">...</text>
      <text x="851.5238" font-size="30px" y="726.3702" clip-path="url(#clipPath2)" font-family="sans-serif" stroke="none" xml:space="preserve">...</text>
    </g>
    <g fill="silver" text-rendering="geometricPrecision" shape-rendering="geometricPrecision" transform="matrix(1,0,0,1,-308,-498)" stroke="silver">
      <rect x="782.496" width="59" height="50" y="816.814" clip-path="url(#clipPath2)" stroke="none"/>
    </g>
    <g text-rendering="geometricPrecision" stroke-miterlimit="1.45" shape-rendering="geometricPrecision" transform="matrix(1,0,0,1,-308,-498)" stroke-linecap="butt">
      <rect fill="none" x="782.496" width="59" height="50" y="816.814" clip-path="url(#clipPath2)"/>
    </g>
    <g fill="silver" text-rendering="geometricPrecision" shape-rendering="geometricPrecision" transform="matrix(1,0,0,1,-308,-498)" stroke="silver">
      <rect x="1072.328" width="59" height="50" y="816.814" clip-path="url(#clipPath2)" stroke="none"/>
    </g>
    <g text-rendering="geometricPrecision" stroke-miterlimit="1.45" shape-rendering="geometricPrecision" transform="matrix(1,0,0,1,-308,-498)" stroke-linecap="butt">
      <rect fill="none" x="1072.328" width="59" height="50" y="816.814" clip-path="url(#clipPath2)"/>
    </g>
    <g fill="rgb(204,255,255)" text-rendering="geometricPrecision" shape-rendering="geometricPrecision" transform="matrix(1,0,0,1,-308,-498)" stroke="rgb(204,255,255)">
      <rect x="897.912" width="59" height="50" y="816.814" clip-path="url(#clipPath2)" stroke="none"/>
    </g>
    <g text-rendering="geometricPrecision" stroke-miterlimit="1.45" shape-rendering="geometricPrecision" transform="matrix(1,0,0,1,-308,-498)" stroke-linecap="butt">
      <rect fill="none" x="897.912" width="59" height="50" y="816.814" clip-path="url(#clipPath2)"/>
      <text x="917.8685" font-size="30px" y="852.1998" clip-path="url(#clipPath2)" font-family="sans-serif" stroke="none" xml:space="preserve">2</text>
    </g>
    <g fill="silver" text-rendering="geometricPrecision" shape-rendering="geometricPrecision" transform="matrix(1,0,0,1,-308,-498)" stroke="silver">
      <rect x="956.912" width="59" height="50" y="816.814" clip-path="url(#clipPath2)" stroke="none"/>
    </g>
    <g text-rendering="geometricPrecision" stroke-miterlimit="1.45" shape-rendering="geometricPrecision" transform="matrix(1,0,0,1,-308,-498)" stroke-linecap="butt">
      <rect fill="none" x="956.912" width="59" height="50" y="816.814" clip-path="url(#clipPath2)"/>
      <text x="774.0155" font-size="30px" y="806.3702" clip-path="url(#clipPath2)" font-family="sans-serif" stroke="none" xml:space="preserve">length</text>
      <text x="1028.5238" font-size="30px" y="852.1998" clip-path="url(#clipPath2)" font-family="sans-serif" stroke="none" xml:space="preserve">...</text>
      <text x="851.5238" font-size="30px" y="852.1998" clip-path="url(#clipPath2)" font-family="sans-serif" stroke="none" xml:space="preserve">...</text>
      <path fill="none" d="M382.3455 656.814 L479.328 656.814" clip-path="url(#clipPath2)"/>
      <path d="M487.328 656.814 L475.328 651.814 L478.328 656.814 L475.328 661.814 Z" clip-path="url(#clipPath2)" stroke="none"/>
      <path fill="none" d="M382.3455 756.814 L479.328 756.814" clip-path="url(#clipPath2)"/>
      <path d="M487.328 756.814 L475.328 751.814 L478.328 756.814 L475.328 761.814 Z" clip-path="url(#clipPath2)" stroke="none"/>
      <path fill="none" d="M382.3455 556.814 L479.328 556.814" clip-path="url(#clipPath2)"/>
      <path d="M487.328 556.814 L475.328 551.814 L478.328 556.814 L475.328 561.814 Z" clip-path="url(#clipPath2)" stroke="none"/>
      <path fill="none" d="M352.8455 531.814 L352.8455 515.1476 L575.828 515.1476 L687.0273 515.1476 L687.0273 774.6868 L927.412 774.6868 L927.412 748.9844" clip-path="url(#clipPath2)"/>
      <path d="M927.412 740.9844 L922.412 752.9844 L927.412 749.9844 L932.412 752.9844 Z" clip-path="url(#clipPath2)" stroke="none"/>
      <path fill="none" d="M352.8455 531.814 L352.8455 515.1476 L687.0273 515.1476 L687.0273 638.1476 L924.828 638.1476 L924.828 621.9844" clip-path="url(#clipPath2)"/>
      <path d="M924.828 613.9844 L919.828 625.9844 L924.828 622.9844 L929.828 625.9844 Z" clip-path="url(#clipPath2)" stroke="none"/>
      <path fill="none" d="M352.8455 781.814 L352.8455 947.671 L927.412 947.671 L927.412 874.814" clip-path="url(#clipPath2)"/>
      <path d="M927.412 866.814 L922.412 878.814 L927.412 875.814 L932.412 878.814 Z" clip-path="url(#clipPath2)" stroke="none"/>
    </g>
  </g>
</svg>
