<?xml version="1.0" encoding="UTF-8"?><svg xmlns="http://www.w3.org/2000/svg" xmlns:xlink="http://www.w3.org/1999/xlink" fill-opacity="1" color-rendering="auto" color-interpolation="auto" text-rendering="auto" stroke="black" stroke-linecap="square" width="919" stroke-miterlimit="10" shape-rendering="auto" stroke-opacity="1" fill="black" stroke-dasharray="none" font-weight="normal" stroke-width="1" height="343" font-family="'Dialog'" font-style="normal" stroke-linejoin="miter" font-size="12px" stroke-dashoffset="0" image-rendering="auto">
  <!--Generated by ySVG 2.5-->
  <defs id="genericDefs"/>
  <g>
    <defs id="defs1">
      <clipPath clipPathUnits="userSpaceOnUse" id="clipPath1">
        <path d="M0 0 L919 0 L919 343 L0 343 L0 0 Z"/>
      </clipPath>
      <clipPath clipPathUnits="userSpaceOnUse" id="clipPath2">
        <path d="M1041 918 L1960 918 L1960 1261 L1041 1261 L1041 918 Z"/>
      </clipPath>
    </defs>
    <g fill="silver" text-rendering="geometricPrecision" shape-rendering="geometricPrecision" transform="matrix(1,0,0,1,-1041,-918)" stroke="silver">
      <rect x="1076.32" width="247.44" height="80" y="960" clip-path="url(#clipPath2)" stroke="none"/>
    </g>
    <g text-rendering="geometricPrecision" stroke-miterlimit="1.45" shape-rendering="geometricPrecision" transform="matrix(1,0,0,1,-1041,-918)" stroke-linecap="butt">
      <rect fill="none" x="1076.32" width="247.44" height="80" y="960" clip-path="url(#clipPath2)"/>
      <text x="1183.375" font-size="30px" y="1006.87" clip-path="url(#clipPath2)" font-family="sans-serif" stroke="none" xml:space="preserve">jar</text>
    </g>
    <g fill="silver" text-rendering="geometricPrecision" shape-rendering="geometricPrecision" transform="matrix(1,0,0,1,-1041,-918)" stroke="silver">
      <rect x="1066.32" width="247.44" height="80" y="970" clip-path="url(#clipPath2)" stroke="none"/>
    </g>
    <g text-rendering="geometricPrecision" stroke-miterlimit="1.45" shape-rendering="geometricPrecision" transform="matrix(1,0,0,1,-1041,-918)" stroke-linecap="butt">
      <rect fill="none" x="1066.32" width="247.44" height="80" y="970" clip-path="url(#clipPath2)"/>
      <text x="1173.375" font-size="30px" y="1016.87" clip-path="url(#clipPath2)" font-family="sans-serif" stroke="none" xml:space="preserve">jar</text>
    </g>
    <g fill="silver" text-rendering="geometricPrecision" shape-rendering="geometricPrecision" transform="matrix(1,0,0,1,-1041,-918)" stroke="silver">
      <rect x="1056.32" width="247.44" height="80" y="980" clip-path="url(#clipPath2)" stroke="none"/>
    </g>
    <g text-rendering="geometricPrecision" stroke-miterlimit="1.45" shape-rendering="geometricPrecision" transform="matrix(1,0,0,1,-1041,-918)" stroke-linecap="butt">
      <rect fill="none" x="1056.32" width="247.44" height="80" y="980" clip-path="url(#clipPath2)"/>
      <text x="1163.375" font-size="30px" y="1026.87" clip-path="url(#clipPath2)" font-family="sans-serif" stroke="none" xml:space="preserve">jar</text>
    </g>
    <g fill="silver" text-rendering="geometricPrecision" shape-rendering="geometricPrecision" transform="matrix(1,0,0,1,-1041,-918)" stroke="silver">
      <rect x="1076.32" width="247.44" height="80" y="1156.224" clip-path="url(#clipPath2)" stroke="none"/>
    </g>
    <g text-rendering="geometricPrecision" stroke-miterlimit="1.45" shape-rendering="geometricPrecision" transform="matrix(1,0,0,1,-1041,-918)" stroke-linecap="butt">
      <rect fill="none" x="1076.32" width="247.44" height="80" y="1156.224" clip-path="url(#clipPath2)"/>
      <text x="1144.1951" font-size="30px" y="1203.094" clip-path="url(#clipPath2)" font-family="sans-serif" stroke="none" xml:space="preserve">rt-1.8.jar</text>
    </g>
    <g fill="rgb(245,245,245)" text-rendering="geometricPrecision" shape-rendering="geometricPrecision" transform="matrix(1,0,0,1,-1041,-918)" stroke="rgb(245,245,245)">
      <rect x="1432.833" y="933.4813" clip-path="url(#clipPath2)" width="511.5379" rx="4" ry="4" height="312.0241" stroke="none"/>
      <rect x="1432.833" y="933.4813" clip-path="url(#clipPath2)" fill="rgb(235,235,235)" width="511.5379" height="39.0001" stroke="none"/>
    </g>
    <g font-size="35px" stroke-linecap="butt" transform="matrix(1,0,0,1,-1041,-918)" text-rendering="geometricPrecision" font-family="sans-serif" shape-rendering="geometricPrecision" stroke-miterlimit="1.45">
      <text x="1882.0658" xml:space="preserve" y="960.9964" clip-path="url(#clipPath2)" stroke="none">Kex</text>
      <rect x="1432.833" y="933.4813" clip-path="url(#clipPath2)" fill="none" width="511.5379" stroke-dasharray="6,2" rx="4" ry="4" height="312.0241"/>
    </g>
    <g fill="rgb(204,255,255)" text-rendering="geometricPrecision" shape-rendering="geometricPrecision" transform="matrix(1,0,0,1,-1041,-918)" stroke="rgb(204,255,255)">
      <rect x="1457.63" width="75.896" height="50" y="995" clip-path="url(#clipPath2)" stroke="none"/>
    </g>
    <g text-rendering="geometricPrecision" stroke-miterlimit="1.45" shape-rendering="geometricPrecision" transform="matrix(1,0,0,1,-1041,-918)" stroke-linecap="butt">
      <rect fill="none" x="1457.63" width="75.896" height="50" y="995" clip-path="url(#clipPath2)"/>
      <text x="1463.9131" font-size="30px" y="1026.87" clip-path="url(#clipPath2)" font-family="sans-serif" stroke="none" xml:space="preserve">CFG</text>
    </g>
    <g fill="rgb(204,255,255)" text-rendering="geometricPrecision" shape-rendering="geometricPrecision" transform="matrix(1,0,0,1,-1041,-918)" stroke="rgb(204,255,255)">
      <rect x="1457.63" width="75.896" height="50" y="1171.224" clip-path="url(#clipPath2)" stroke="none"/>
    </g>
    <g text-rendering="geometricPrecision" stroke-miterlimit="1.45" shape-rendering="geometricPrecision" transform="matrix(1,0,0,1,-1041,-918)" stroke-linecap="butt">
      <rect fill="none" x="1457.63" width="75.896" height="50" y="1171.224" clip-path="url(#clipPath2)"/>
      <text x="1463.9131" font-size="30px" y="1203.094" clip-path="url(#clipPath2)" font-family="sans-serif" stroke="none" xml:space="preserve">CFG</text>
    </g>
    <g fill="rgb(0,204,255)" text-rendering="geometricPrecision" shape-rendering="geometricPrecision" transform="matrix(1,0,0,1,-1041,-918)" stroke="rgb(0,204,255)">
      <rect x="1594.418" width="75.896" height="50" y="995" clip-path="url(#clipPath2)" stroke="none"/>
    </g>
    <g text-rendering="geometricPrecision" stroke-miterlimit="1.45" shape-rendering="geometricPrecision" transform="matrix(1,0,0,1,-1041,-918)" stroke-linecap="butt">
      <rect fill="none" x="1594.418" width="75.896" height="50" y="995" clip-path="url(#clipPath2)"/>
      <text x="1612.3561" font-size="30px" y="1026.87" clip-path="url(#clipPath2)" font-family="sans-serif" stroke="none" xml:space="preserve">PS</text>
    </g>
    <g fill="rgb(0,204,255)" text-rendering="geometricPrecision" shape-rendering="geometricPrecision" transform="matrix(1,0,0,1,-1041,-918)" stroke="rgb(0,204,255)">
      <rect x="1594.418" width="75.896" height="50" y="1171.224" clip-path="url(#clipPath2)" stroke="none"/>
    </g>
    <g text-rendering="geometricPrecision" stroke-miterlimit="1.45" shape-rendering="geometricPrecision" transform="matrix(1,0,0,1,-1041,-918)" stroke-linecap="butt">
      <rect fill="none" x="1594.418" width="75.896" height="50" y="1171.224" clip-path="url(#clipPath2)"/>
      <text x="1612.3561" font-size="30px" y="1203.094" clip-path="url(#clipPath2)" font-family="sans-serif" stroke="none" xml:space="preserve">PS</text>
    </g>
    <g fill="rgb(51,102,255)" text-rendering="geometricPrecision" shape-rendering="geometricPrecision" transform="matrix(1,0,0,1,-1041,-918)" stroke="rgb(51,102,255)">
      <rect x="1738.564" width="175.736" height="178.512" y="1017.176" clip-path="url(#clipPath2)" stroke="none"/>
    </g>
    <g text-rendering="geometricPrecision" stroke-miterlimit="1.45" shape-rendering="geometricPrecision" transform="matrix(1,0,0,1,-1041,-918)" stroke-linecap="butt">
      <rect fill="none" x="1738.564" width="175.736" height="178.512" y="1017.176" clip-path="url(#clipPath2)"/>
      <text x="1772.2521" font-size="30px" y="1113.302" clip-path="url(#clipPath2)" font-family="sans-serif" stroke="none" xml:space="preserve">analysis</text>
      <path fill="none" d="M1303.76 1020 L1442.63 1020" clip-path="url(#clipPath2)"/>
      <path fill="white" d="M1457.63 1020 L1441.63 1014 L1441.63 1026 Z" clip-path="url(#clipPath2)" stroke="none"/>
      <path fill="none" d="M1457.63 1020 L1441.63 1014 L1441.63 1026 Z" clip-path="url(#clipPath2)"/>
      <path fill="none" d="M1323.76 1196.224 L1442.63 1196.224" clip-path="url(#clipPath2)"/>
      <path fill="white" d="M1457.63 1196.224 L1441.63 1190.224 L1441.63 1202.224 Z" clip-path="url(#clipPath2)" stroke="none"/>
      <path fill="none" d="M1457.63 1196.224 L1441.63 1190.224 L1441.63 1202.224 Z" clip-path="url(#clipPath2)"/>
      <path fill="none" d="M1533.526 1020 L1579.418 1020" clip-path="url(#clipPath2)"/>
      <path fill="white" d="M1594.418 1020 L1578.418 1014 L1578.418 1026 Z" clip-path="url(#clipPath2)" stroke="none"/>
      <path fill="none" d="M1594.418 1020 L1578.418 1014 L1578.418 1026 Z" clip-path="url(#clipPath2)"/>
      <path fill="none" d="M1533.526 1196.224 L1579.418 1196.224" clip-path="url(#clipPath2)"/>
      <path fill="white" d="M1594.418 1196.224 L1578.418 1190.224 L1578.418 1202.224 Z" clip-path="url(#clipPath2)" stroke="none"/>
      <path fill="none" d="M1594.418 1196.224 L1578.418 1190.224 L1578.418 1202.224 Z" clip-path="url(#clipPath2)"/>
      <path fill="none" d="M1632.366 1171.224 L1632.366 1060" clip-path="url(#clipPath2)"/>
      <path fill="white" d="M1632.366 1045 L1626.366 1061 L1638.366 1061 Z" clip-path="url(#clipPath2)" stroke="none"/>
      <path fill="none" d="M1632.366 1045 L1626.366 1061 L1638.366 1061 Z" clip-path="url(#clipPath2)"/>
      <path fill="none" d="M1670.314 1020 L1705.28 1020 L1705.28 1117.1573 L1723.6224 1115.5336" clip-path="url(#clipPath2)"/>
      <path fill="white" d="M1738.564 1114.2108 L1722.0972 1109.6451 L1723.1554 1121.5984 Z" clip-path="url(#clipPath2)" stroke="none"/>
      <path fill="none" d="M1738.564 1114.2108 L1722.0972 1109.6451 L1723.1554 1121.5984 Z" clip-path="url(#clipPath2)"/>
    </g>
  </g>
</svg>
