<?xml version="1.0" encoding="UTF-8"?><svg xmlns="http://www.w3.org/2000/svg" xmlns:xlink="http://www.w3.org/1999/xlink" fill-opacity="1" color-rendering="auto" color-interpolation="auto" text-rendering="auto" stroke="black" stroke-linecap="square" width="940" stroke-miterlimit="10" shape-rendering="auto" stroke-opacity="1" fill="black" stroke-dasharray="none" font-weight="normal" stroke-width="1" height="458" font-family="'Dialog'" font-style="normal" stroke-linejoin="miter" font-size="12px" stroke-dashoffset="0" image-rendering="auto">
  <!--Generated by ySVG 2.5-->
  <defs id="genericDefs"/>
  <g>
    <defs id="defs1">
      <clipPath clipPathUnits="userSpaceOnUse" id="clipPath1">
        <path d="M0 0 L940 0 L940 458 L0 458 L0 0 Z"/>
      </clipPath>
      <clipPath clipPathUnits="userSpaceOnUse" id="clipPath2">
        <path d="M1112 957 L2052 957 L2052 1415 L1112 1415 L1112 957 Z"/>
      </clipPath>
    </defs>
    <g fill="silver" text-rendering="geometricPrecision" shape-rendering="geometricPrecision" transform="matrix(1,0,0,1,-1112,-957)" stroke="silver">
      <rect x="1147" width="250" height="80" y="980" clip-path="url(#clipPath2)" stroke="none"/>
    </g>
    <g fill="white" text-rendering="geometricPrecision" shape-rendering="geometricPrecision" transform="matrix(1,0,0,1,-1112,-957)" stroke="white">
      <rect x="1147" width="1" height="80" y="980" clip-path="url(#clipPath2)" stroke="none"/>
      <rect x="1148" width="248" height="1" y="980" clip-path="url(#clipPath2)" stroke="none"/>
      <rect x="1148" y="1059" clip-path="url(#clipPath2)" fill="rgb(134,134,134)" width="249" height="1" stroke="none"/>
      <rect x="1396" y="980" clip-path="url(#clipPath2)" fill="rgb(134,134,134)" width="1" height="79" stroke="none"/>
    </g>
    <g font-size="35px" stroke-linecap="butt" transform="matrix(1,0,0,1,-1112,-957)" text-rendering="geometricPrecision" font-family="sans-serif" shape-rendering="geometricPrecision" stroke-miterlimit="1.45">
      <text x="1252.5575" xml:space="preserve" y="1028.015" clip-path="url(#clipPath2)" stroke="none">jar</text>
    </g>
    <g fill="silver" text-rendering="geometricPrecision" shape-rendering="geometricPrecision" transform="matrix(1,0,0,1,-1112,-957)" stroke="silver">
      <rect x="1137" width="250" height="80" y="990" clip-path="url(#clipPath2)" stroke="none"/>
      <rect x="1137" y="990" clip-path="url(#clipPath2)" fill="white" width="1" height="80" stroke="none"/>
      <rect x="1138" y="990" clip-path="url(#clipPath2)" fill="white" width="248" height="1" stroke="none"/>
      <rect x="1138" y="1069" clip-path="url(#clipPath2)" fill="rgb(134,134,134)" width="249" height="1" stroke="none"/>
      <rect x="1386" y="990" clip-path="url(#clipPath2)" fill="rgb(134,134,134)" width="1" height="79" stroke="none"/>
    </g>
    <g font-size="35px" stroke-linecap="butt" transform="matrix(1,0,0,1,-1112,-957)" text-rendering="geometricPrecision" font-family="sans-serif" shape-rendering="geometricPrecision" stroke-miterlimit="1.45">
      <text x="1242.5575" xml:space="preserve" y="1038.015" clip-path="url(#clipPath2)" stroke="none">jar</text>
    </g>
    <g fill="rgb(255,204,153)" text-rendering="geometricPrecision" shape-rendering="geometricPrecision" transform="matrix(1,0,0,1,-1112,-957)" stroke="rgb(255,204,153)">
      <rect x="1470.153" y="972.9627" clip-path="url(#clipPath2)" width="566.5379" rx="4" ry="4" height="333.024" stroke="none"/>
      <rect x="1648" y="1190.9867" clip-path="url(#clipPath2)" fill="rgb(0,204,255)" width="90" height="80" stroke="none"/>
      <rect x="1648" y="1190.9867" clip-path="url(#clipPath2)" fill="aqua" width="1" height="80" stroke="none"/>
      <rect x="1649" y="1190.9867" clip-path="url(#clipPath2)" fill="aqua" width="88" height="1" stroke="none"/>
      <rect x="1649" y="1269.9867" clip-path="url(#clipPath2)" fill="rgb(0,142,178)" width="89" height="1" stroke="none"/>
      <rect x="1737" y="1190.9867" clip-path="url(#clipPath2)" fill="rgb(0,142,178)" width="1" height="79" stroke="none"/>
    </g>
    <g font-size="35px" stroke-linecap="butt" transform="matrix(1,0,0,1,-1112,-957)" text-rendering="geometricPrecision" font-family="sans-serif" shape-rendering="geometricPrecision" stroke-miterlimit="1.45">
      <text x="1669.6549" xml:space="preserve" y="1239.0017" clip-path="url(#clipPath2)" stroke="none">PS</text>
    </g>
    <g fill="rgb(51,102,255)" text-rendering="geometricPrecision" shape-rendering="geometricPrecision" transform="matrix(1,0,0,1,-1112,-957)" stroke="rgb(51,102,255)">
      <rect x="1820.796" width="200" height="200" y="1046" clip-path="url(#clipPath2)" stroke="none"/>
      <rect x="1820.796" y="1046" clip-path="url(#clipPath2)" fill="rgb(72,145,255)" width="1" height="200" stroke="none"/>
      <rect x="1821.796" y="1046" clip-path="url(#clipPath2)" fill="rgb(72,145,255)" width="198" height="1" stroke="none"/>
      <rect x="1821.796" y="1245" clip-path="url(#clipPath2)" fill="rgb(35,71,178)" width="199" height="1" stroke="none"/>
      <rect x="2019.796" y="1046" clip-path="url(#clipPath2)" fill="rgb(35,71,178)" width="1" height="199" stroke="none"/>
    </g>
    <g font-size="35px" stroke-linecap="butt" transform="matrix(1,0,0,1,-1112,-957)" text-rendering="geometricPrecision" font-family="sans-serif" shape-rendering="geometricPrecision" stroke-miterlimit="1.45">
      <text x="1857.5858" xml:space="preserve" y="1154.015" clip-path="url(#clipPath2)" stroke="none">analysis</text>
      <text x="1164.1801" font-size="40px" y="1386.6317" clip-path="url(#clipPath2)" fill="red" stroke="none" xml:space="preserve">too complex</text>
    </g>
    <g fill="silver" text-rendering="geometricPrecision" shape-rendering="geometricPrecision" transform="matrix(1,0,0,1,-1112,-957)" stroke="silver">
      <rect x="1127" width="250" height="80" y="1000" clip-path="url(#clipPath2)" stroke="none"/>
      <rect x="1127" y="1000" clip-path="url(#clipPath2)" fill="white" width="1" height="80" stroke="none"/>
      <rect x="1128" y="1000" clip-path="url(#clipPath2)" fill="white" width="248" height="1" stroke="none"/>
      <rect x="1128" y="1079" clip-path="url(#clipPath2)" fill="rgb(134,134,134)" width="249" height="1" stroke="none"/>
      <rect x="1376" y="1000" clip-path="url(#clipPath2)" fill="rgb(134,134,134)" width="1" height="79" stroke="none"/>
    </g>
    <g font-size="35px" stroke-linecap="butt" transform="matrix(1,0,0,1,-1112,-957)" text-rendering="geometricPrecision" font-family="sans-serif" shape-rendering="geometricPrecision" stroke-miterlimit="1.45">
      <text x="1232.5575" xml:space="preserve" y="1048.015" clip-path="url(#clipPath2)" stroke="none">jar</text>
    </g>
    <g fill="silver" text-rendering="geometricPrecision" shape-rendering="geometricPrecision" transform="matrix(1,0,0,1,-1112,-957)" stroke="silver">
      <rect x="1147" width="250" height="80" y="1190.9867" clip-path="url(#clipPath2)" stroke="none"/>
      <rect x="1147" y="1190.9867" clip-path="url(#clipPath2)" fill="white" width="1" height="80" stroke="none"/>
      <rect x="1148" y="1190.9867" clip-path="url(#clipPath2)" fill="white" width="248" height="1" stroke="none"/>
      <rect x="1148" y="1269.9867" clip-path="url(#clipPath2)" fill="rgb(134,134,134)" width="249" height="1" stroke="none"/>
      <rect x="1396" y="1190.9867" clip-path="url(#clipPath2)" fill="rgb(134,134,134)" width="1" height="79" stroke="none"/>
    </g>
    <g font-size="35px" stroke-linecap="butt" transform="matrix(1,0,0,1,-1112,-957)" text-rendering="geometricPrecision" font-family="sans-serif" shape-rendering="geometricPrecision" stroke-miterlimit="1.45">
      <text x="1206.8473" xml:space="preserve" y="1239.0017" clip-path="url(#clipPath2)" stroke="none">rt-1.8.jar</text>
    </g>
    <g fill="rgb(0,204,255)" text-rendering="geometricPrecision" shape-rendering="geometricPrecision" transform="matrix(1,0,0,1,-1112,-957)" stroke="rgb(0,204,255)">
      <rect x="1648" width="90" height="80" y="1000" clip-path="url(#clipPath2)" stroke="none"/>
      <rect x="1648" y="1000" clip-path="url(#clipPath2)" fill="aqua" width="1" height="80" stroke="none"/>
      <rect x="1649" y="1000" clip-path="url(#clipPath2)" fill="aqua" width="88" height="1" stroke="none"/>
      <rect x="1649" y="1079" clip-path="url(#clipPath2)" fill="rgb(0,142,178)" width="89" height="1" stroke="none"/>
      <rect x="1737" y="1000" clip-path="url(#clipPath2)" fill="rgb(0,142,178)" width="1" height="79" stroke="none"/>
    </g>
    <g font-size="35px" stroke-linecap="butt" transform="matrix(1,0,0,1,-1112,-957)" text-rendering="geometricPrecision" font-family="sans-serif" shape-rendering="geometricPrecision" stroke-miterlimit="1.45">
      <text x="1669.6549" xml:space="preserve" y="1048.015" clip-path="url(#clipPath2)" stroke="none">PS</text>
    </g>
    <g fill="rgb(204,255,255)" text-rendering="geometricPrecision" shape-rendering="geometricPrecision" transform="matrix(1,0,0,1,-1112,-957)" stroke="rgb(204,255,255)">
      <rect x="1506.898" width="90" height="80" y="1000" clip-path="url(#clipPath2)" stroke="none"/>
      <rect x="1506.898" y="1000" clip-path="url(#clipPath2)" fill="white" width="1" height="80" stroke="none"/>
      <rect x="1507.898" y="1000" clip-path="url(#clipPath2)" fill="white" width="88" height="1" stroke="none"/>
      <rect x="1507.898" y="1079" clip-path="url(#clipPath2)" fill="rgb(142,178,178)" width="89" height="1" stroke="none"/>
      <rect x="1595.898" y="1000" clip-path="url(#clipPath2)" fill="rgb(142,178,178)" width="1" height="79" stroke="none"/>
    </g>
    <g font-size="35px" stroke-linecap="butt" transform="matrix(1,0,0,1,-1112,-957)" text-rendering="geometricPrecision" font-family="sans-serif" shape-rendering="geometricPrecision" stroke-miterlimit="1.45">
      <text x="1514.9554" xml:space="preserve" y="1048.015" clip-path="url(#clipPath2)" stroke="none">CFG</text>
    </g>
    <g fill="rgb(204,255,255)" text-rendering="geometricPrecision" shape-rendering="geometricPrecision" transform="matrix(1,0,0,1,-1112,-957)" stroke="rgb(204,255,255)">
      <rect x="1506.898" width="90" height="80" y="1190.9867" clip-path="url(#clipPath2)" stroke="none"/>
      <rect x="1506.898" y="1190.9867" clip-path="url(#clipPath2)" fill="white" width="1" height="80" stroke="none"/>
      <rect x="1507.898" y="1190.9867" clip-path="url(#clipPath2)" fill="white" width="88" height="1" stroke="none"/>
      <rect x="1507.898" y="1269.9867" clip-path="url(#clipPath2)" fill="rgb(142,178,178)" width="89" height="1" stroke="none"/>
      <rect x="1595.898" y="1190.9867" clip-path="url(#clipPath2)" fill="rgb(142,178,178)" width="1" height="79" stroke="none"/>
    </g>
    <g font-size="35px" stroke-linecap="butt" transform="matrix(1,0,0,1,-1112,-957)" text-rendering="geometricPrecision" font-family="sans-serif" shape-rendering="geometricPrecision" stroke-miterlimit="1.45">
      <text x="1514.9554" xml:space="preserve" y="1239.0017" clip-path="url(#clipPath2)" stroke="none">CFG</text>
      <text x="1962.3361" xml:space="preserve" font-size="40px" y="1010.16" clip-path="url(#clipPath2)" stroke="none">Kex</text>
      <path fill="none" d="M1272 1362.4717 L1272 1286.0165" clip-path="url(#clipPath2)"/>
    </g>
    <g stroke-linecap="butt" transform="matrix(1,0,0,1,-1112,-957)" fill="white" text-rendering="geometricPrecision" shape-rendering="geometricPrecision" stroke="white" stroke-miterlimit="1.45">
      <path d="M1272 1271.0165 L1266 1287.0165 L1278 1287.0165 Z" stroke="none" clip-path="url(#clipPath2)"/>
      <path fill="none" d="M1272 1271.0165 L1266 1287.0165 L1278 1287.0165 Z" clip-path="url(#clipPath2)" stroke="black"/>
      <path fill="none" d="M1693 1191.0269 L1693 1095.0059" clip-path="url(#clipPath2)" stroke="black"/>
      <path d="M1693 1080.0059 L1687 1096.0059 L1699 1096.0059 Z" clip-path="url(#clipPath2)" stroke="none"/>
      <path fill="none" d="M1693 1080.0059 L1687 1096.0059 L1699 1096.0059 Z" clip-path="url(#clipPath2)" stroke="black"/>
      <path fill="none" d="M1738.0198 1060.949 L1807.1959 1093.1387" clip-path="url(#clipPath2)" stroke="black"/>
      <path d="M1820.7957 1099.4669 L1808.8206 1087.2769 L1803.7579 1098.1567 Z" clip-path="url(#clipPath2)" stroke="none"/>
      <path fill="none" d="M1820.7957 1099.4669 L1808.8206 1087.2769 L1803.7579 1098.1567 Z" clip-path="url(#clipPath2)" stroke="black"/>
      <path fill="none" d="M1377.0186 1040 L1491.9399 1040" clip-path="url(#clipPath2)" stroke="black"/>
      <path d="M1506.9399 1040 L1490.9399 1034 L1490.9399 1046 Z" clip-path="url(#clipPath2)" stroke="none"/>
      <path fill="none" d="M1506.9399 1040 L1490.9399 1034 L1490.9399 1046 Z" clip-path="url(#clipPath2)" stroke="black"/>
      <path fill="none" d="M1596.9225 1040 L1633.0106 1040" clip-path="url(#clipPath2)" stroke="black"/>
      <path d="M1648.0106 1040 L1632.0106 1034 L1632.0106 1046 Z" clip-path="url(#clipPath2)" stroke="none"/>
      <path fill="none" d="M1648.0106 1040 L1632.0106 1034 L1632.0106 1046 Z" clip-path="url(#clipPath2)" stroke="black"/>
      <path fill="none" d="M1397.0179 1230.9867 L1491.8633 1230.9867" clip-path="url(#clipPath2)" stroke="black"/>
      <path d="M1506.8633 1230.9867 L1490.8633 1224.9867 L1490.8633 1236.9867 Z" clip-path="url(#clipPath2)" stroke="none"/>
      <path fill="none" d="M1506.8633 1230.9867 L1490.8633 1224.9867 L1490.8633 1236.9867 Z" clip-path="url(#clipPath2)" stroke="black"/>
      <path fill="none" d="M1596.9225 1230.9867 L1633.0106 1230.9867" clip-path="url(#clipPath2)" stroke="black"/>
      <path d="M1648.0106 1230.9867 L1632.0106 1224.9867 L1632.0106 1236.9867 Z" clip-path="url(#clipPath2)" stroke="none"/>
      <path fill="none" d="M1648.0106 1230.9867 L1632.0106 1224.9867 L1632.0106 1236.9867 Z" clip-path="url(#clipPath2)" stroke="black"/>
    </g>
  </g>
</svg>
