<?xml version="1.0" encoding="UTF-8"?><svg xmlns="http://www.w3.org/2000/svg" xmlns:xlink="http://www.w3.org/1999/xlink" fill-opacity="1" color-rendering="auto" color-interpolation="auto" text-rendering="auto" stroke="black" stroke-linecap="square" width="919" stroke-miterlimit="10" shape-rendering="auto" stroke-opacity="1" fill="black" stroke-dasharray="none" font-weight="normal" stroke-width="1" height="455" font-family="'Dialog'" font-style="normal" stroke-linejoin="miter" font-size="12px" stroke-dashoffset="0" image-rendering="auto">
  <!--Generated by ySVG 2.5-->
  <defs id="genericDefs"/>
  <g>
    <defs id="defs1">
      <clipPath clipPathUnits="userSpaceOnUse" id="clipPath1">
        <path d="M0 0 L919 0 L919 455 L0 455 L0 0 Z"/>
      </clipPath>
      <clipPath clipPathUnits="userSpaceOnUse" id="clipPath2">
        <path d="M1066 943 L1985 943 L1985 1398 L1066 1398 L1066 943 Z"/>
      </clipPath>
    </defs>
    <g fill="silver" text-rendering="geometricPrecision" shape-rendering="geometricPrecision" transform="matrix(1,0,0,1,-1066,-943)" stroke="silver">
      <rect x="1101.64" width="247.44" height="80" y="985.4813" clip-path="url(#clipPath2)" stroke="none"/>
    </g>
    <g text-rendering="geometricPrecision" stroke-miterlimit="1.45" shape-rendering="geometricPrecision" transform="matrix(1,0,0,1,-1066,-943)" stroke-linecap="butt">
      <rect fill="none" x="1101.64" width="247.44" height="80" y="985.4813" clip-path="url(#clipPath2)"/>
      <text x="1208.6951" font-size="30px" y="1032.3513" clip-path="url(#clipPath2)" font-family="sans-serif" stroke="none" xml:space="preserve">jar</text>
    </g>
    <g fill="silver" text-rendering="geometricPrecision" shape-rendering="geometricPrecision" transform="matrix(1,0,0,1,-1066,-943)" stroke="silver">
      <rect x="1091.64" width="247.44" height="80" y="995.4813" clip-path="url(#clipPath2)" stroke="none"/>
    </g>
    <g text-rendering="geometricPrecision" stroke-miterlimit="1.45" shape-rendering="geometricPrecision" transform="matrix(1,0,0,1,-1066,-943)" stroke-linecap="butt">
      <rect fill="none" x="1091.64" width="247.44" height="80" y="995.4813" clip-path="url(#clipPath2)"/>
      <text x="1198.6951" font-size="30px" y="1042.3513" clip-path="url(#clipPath2)" font-family="sans-serif" stroke="none" xml:space="preserve">jar</text>
    </g>
    <g fill="silver" text-rendering="geometricPrecision" shape-rendering="geometricPrecision" transform="matrix(1,0,0,1,-1066,-943)" stroke="silver">
      <rect x="1081.64" width="247.44" height="80" y="1005.4813" clip-path="url(#clipPath2)" stroke="none"/>
    </g>
    <g text-rendering="geometricPrecision" stroke-miterlimit="1.45" shape-rendering="geometricPrecision" transform="matrix(1,0,0,1,-1066,-943)" stroke-linecap="butt">
      <rect fill="none" x="1081.64" width="247.44" height="80" y="1005.4813" clip-path="url(#clipPath2)"/>
      <text x="1188.6951" font-size="30px" y="1052.3513" clip-path="url(#clipPath2)" font-family="sans-serif" stroke="none" xml:space="preserve">jar</text>
    </g>
    <g fill="silver" text-rendering="geometricPrecision" shape-rendering="geometricPrecision" transform="matrix(1,0,0,1,-1066,-943)" stroke="silver">
      <rect x="1101.64" width="247.44" height="80" y="1181.7053" clip-path="url(#clipPath2)" stroke="none"/>
    </g>
    <g text-rendering="geometricPrecision" stroke-miterlimit="1.45" shape-rendering="geometricPrecision" transform="matrix(1,0,0,1,-1066,-943)" stroke-linecap="butt">
      <rect fill="none" x="1101.64" width="247.44" height="80" y="1181.7053" clip-path="url(#clipPath2)"/>
      <text x="1169.515" font-size="30px" y="1228.5753" clip-path="url(#clipPath2)" font-family="sans-serif" stroke="none" xml:space="preserve">rt-1.8.jar</text>
    </g>
    <g fill="rgb(245,245,245)" text-rendering="geometricPrecision" shape-rendering="geometricPrecision" transform="matrix(1,0,0,1,-1066,-943)" stroke="rgb(245,245,245)">
      <rect x="1458.153" y="958.9626" clip-path="url(#clipPath2)" width="511.5379" rx="4" ry="4" height="312.0241" stroke="none"/>
      <rect x="1458.153" y="958.9626" clip-path="url(#clipPath2)" fill="rgb(235,235,235)" width="511.5379" height="39.0001" stroke="none"/>
    </g>
    <g font-size="35px" stroke-linecap="butt" transform="matrix(1,0,0,1,-1066,-943)" text-rendering="geometricPrecision" font-family="sans-serif" shape-rendering="geometricPrecision" stroke-miterlimit="1.45">
      <text x="1907.3859" xml:space="preserve" y="986.4777" clip-path="url(#clipPath2)" stroke="none">Kex</text>
      <rect x="1458.153" y="958.9626" clip-path="url(#clipPath2)" fill="none" width="511.5379" stroke-dasharray="6,2" rx="4" ry="4" height="312.0241"/>
    </g>
    <g fill="rgb(204,255,255)" text-rendering="geometricPrecision" shape-rendering="geometricPrecision" transform="matrix(1,0,0,1,-1066,-943)" stroke="rgb(204,255,255)">
      <rect x="1482.95" width="75.896" height="50" y="1020.4813" clip-path="url(#clipPath2)" stroke="none"/>
    </g>
    <g text-rendering="geometricPrecision" stroke-miterlimit="1.45" shape-rendering="geometricPrecision" transform="matrix(1,0,0,1,-1066,-943)" stroke-linecap="butt">
      <rect fill="none" x="1482.95" width="75.896" height="50" y="1020.4813" clip-path="url(#clipPath2)"/>
      <text x="1489.233" font-size="30px" y="1052.3513" clip-path="url(#clipPath2)" font-family="sans-serif" stroke="none" xml:space="preserve">CFG</text>
    </g>
    <g fill="rgb(204,255,255)" text-rendering="geometricPrecision" shape-rendering="geometricPrecision" transform="matrix(1,0,0,1,-1066,-943)" stroke="rgb(204,255,255)">
      <rect x="1482.95" width="75.896" height="50" y="1196.7053" clip-path="url(#clipPath2)" stroke="none"/>
    </g>
    <g text-rendering="geometricPrecision" stroke-miterlimit="1.45" shape-rendering="geometricPrecision" transform="matrix(1,0,0,1,-1066,-943)" stroke-linecap="butt">
      <rect fill="none" x="1482.95" width="75.896" height="50" y="1196.7053" clip-path="url(#clipPath2)"/>
      <text x="1489.233" font-size="30px" y="1228.5753" clip-path="url(#clipPath2)" font-family="sans-serif" stroke="none" xml:space="preserve">CFG</text>
    </g>
    <g fill="rgb(0,204,255)" text-rendering="geometricPrecision" shape-rendering="geometricPrecision" transform="matrix(1,0,0,1,-1066,-943)" stroke="rgb(0,204,255)">
      <rect x="1619.738" width="75.896" height="50" y="1020.4813" clip-path="url(#clipPath2)" stroke="none"/>
    </g>
    <g text-rendering="geometricPrecision" stroke-miterlimit="1.45" shape-rendering="geometricPrecision" transform="matrix(1,0,0,1,-1066,-943)" stroke-linecap="butt">
      <rect fill="none" x="1619.738" width="75.896" height="50" y="1020.4813" clip-path="url(#clipPath2)"/>
      <text x="1637.676" font-size="30px" y="1052.3513" clip-path="url(#clipPath2)" font-family="sans-serif" stroke="none" xml:space="preserve">PS</text>
    </g>
    <g fill="rgb(0,204,255)" text-rendering="geometricPrecision" shape-rendering="geometricPrecision" transform="matrix(1,0,0,1,-1066,-943)" stroke="rgb(0,204,255)">
      <rect x="1619.738" width="75.896" height="50" y="1196.7053" clip-path="url(#clipPath2)" stroke="none"/>
    </g>
    <g text-rendering="geometricPrecision" stroke-miterlimit="1.45" shape-rendering="geometricPrecision" transform="matrix(1,0,0,1,-1066,-943)" stroke-linecap="butt">
      <rect fill="none" x="1619.738" width="75.896" height="50" y="1196.7053" clip-path="url(#clipPath2)"/>
      <text x="1637.676" font-size="30px" y="1228.5753" clip-path="url(#clipPath2)" font-family="sans-serif" stroke="none" xml:space="preserve">PS</text>
    </g>
    <g fill="rgb(51,102,255)" text-rendering="geometricPrecision" shape-rendering="geometricPrecision" transform="matrix(1,0,0,1,-1066,-943)" stroke="rgb(51,102,255)">
      <rect x="1763.884" width="175.736" height="178.512" y="1042.6573" clip-path="url(#clipPath2)" stroke="none"/>
    </g>
    <g text-rendering="geometricPrecision" stroke-miterlimit="1.45" shape-rendering="geometricPrecision" transform="matrix(1,0,0,1,-1066,-943)" stroke-linecap="butt">
      <rect fill="none" x="1763.884" width="175.736" height="178.512" y="1042.6573" clip-path="url(#clipPath2)"/>
      <text x="1797.572" font-size="30px" y="1138.7833" clip-path="url(#clipPath2)" font-family="sans-serif" stroke="none" xml:space="preserve">analysis</text>
    </g>
    <g stroke-linecap="butt" font-size="40px" transform="matrix(1,0,0,1,-1066,-943)" fill="red" text-rendering="geometricPrecision" font-family="sans-serif" shape-rendering="geometricPrecision" stroke="red" stroke-miterlimit="1.45">
      <text x="1117.5402" xml:space="preserve" y="1369.6317" clip-path="url(#clipPath2)" stroke="none">too complex</text>
    </g>
    <g text-rendering="geometricPrecision" stroke-miterlimit="1.45" shape-rendering="geometricPrecision" transform="matrix(1,0,0,1,-1066,-943)" stroke-linecap="butt">
      <path fill="none" d="M1329.08 1045.4813 L1467.95 1045.4813" clip-path="url(#clipPath2)"/>
      <path fill="white" d="M1482.95 1045.4813 L1466.95 1039.4813 L1466.95 1051.4813 Z" clip-path="url(#clipPath2)" stroke="none"/>
      <path fill="none" d="M1482.95 1045.4813 L1466.95 1039.4813 L1466.95 1051.4813 Z" clip-path="url(#clipPath2)"/>
      <path fill="none" d="M1349.08 1221.7053 L1467.95 1221.7053" clip-path="url(#clipPath2)"/>
      <path fill="white" d="M1482.95 1221.7053 L1466.95 1215.7053 L1466.95 1227.7053 Z" clip-path="url(#clipPath2)" stroke="none"/>
      <path fill="none" d="M1482.95 1221.7053 L1466.95 1215.7053 L1466.95 1227.7053 Z" clip-path="url(#clipPath2)"/>
      <path fill="none" d="M1558.8459 1045.4813 L1604.738 1045.4813" clip-path="url(#clipPath2)"/>
      <path fill="white" d="M1619.738 1045.4813 L1603.738 1039.4813 L1603.738 1051.4813 Z" clip-path="url(#clipPath2)" stroke="none"/>
      <path fill="none" d="M1619.738 1045.4813 L1603.738 1039.4813 L1603.738 1051.4813 Z" clip-path="url(#clipPath2)"/>
      <path fill="none" d="M1558.8459 1221.7053 L1604.738 1221.7053" clip-path="url(#clipPath2)"/>
      <path fill="white" d="M1619.738 1221.7053 L1603.738 1215.7053 L1603.738 1227.7053 Z" clip-path="url(#clipPath2)" stroke="none"/>
      <path fill="none" d="M1619.738 1221.7053 L1603.738 1215.7053 L1603.738 1227.7053 Z" clip-path="url(#clipPath2)"/>
      <path fill="none" d="M1657.686 1196.7053 L1657.686 1085.4813" clip-path="url(#clipPath2)"/>
      <path fill="white" d="M1657.686 1070.4813 L1651.686 1086.4813 L1663.686 1086.4813 Z" clip-path="url(#clipPath2)" stroke="none"/>
      <path fill="none" d="M1657.686 1070.4813 L1651.686 1086.4813 L1663.686 1086.4813 Z" clip-path="url(#clipPath2)"/>
      <path fill="none" d="M1695.634 1045.4813 L1730.6 1045.4813 L1730.6 1142.6387 L1748.9424 1141.0149" clip-path="url(#clipPath2)"/>
      <path fill="white" d="M1763.8839 1139.6921 L1747.4171 1135.1265 L1748.4753 1147.0797 Z" clip-path="url(#clipPath2)" stroke="none"/>
      <path fill="none" d="M1763.8839 1139.6921 L1747.4171 1135.1265 L1748.4753 1147.0797 Z" clip-path="url(#clipPath2)"/>
      <path fill="none" d="M1225.36 1345.4717 L1225.36 1272.7053" clip-path="url(#clipPath2)" stroke="red"/>
      <path fill="red" d="M1225.36 1261.7053 L1219.36 1273.7053 L1231.36 1273.7053 Z" clip-path="url(#clipPath2)" stroke="none"/>
    </g>
  </g>
</svg>
