<?xml version="1.0" encoding="UTF-8"?><svg xmlns="http://www.w3.org/2000/svg" xmlns:xlink="http://www.w3.org/1999/xlink" fill-opacity="1" color-rendering="auto" color-interpolation="auto" text-rendering="auto" stroke="black" stroke-linecap="square" width="940" stroke-miterlimit="10" shape-rendering="auto" stroke-opacity="1" fill="black" stroke-dasharray="none" font-weight="normal" stroke-width="1" height="458" font-family="'Dialog'" font-style="normal" stroke-linejoin="miter" font-size="12px" stroke-dashoffset="0" image-rendering="auto">
  <!--Generated by ySVG 2.5-->
  <defs id="genericDefs"/>
  <g>
    <defs id="defs1">
      <linearGradient x1="1689.16" gradientUnits="userSpaceOnUse" x2="1749.16" y1="1185.9867" y2="1185.9867" id="linearGradient1" spreadMethod="reflect">
        <stop stop-opacity="1" stop-color="rgb(0,204,255)" offset="0%"/>
        <stop stop-opacity="1" stop-color="rgb(0,204,255)" offset="100%"/>
      </linearGradient>
      <linearGradient x1="1689.16" gradientUnits="userSpaceOnUse" x2="1749.16" y1="995" y2="995" id="linearGradient2" spreadMethod="reflect">
        <stop stop-opacity="1" stop-color="rgb(0,204,255)" offset="0%"/>
        <stop stop-opacity="1" stop-color="rgb(0,204,255)" offset="100%"/>
      </linearGradient>
      <clipPath clipPathUnits="userSpaceOnUse" id="clipPath1">
        <path d="M0 0 L940 0 L940 458 L0 458 L0 0 Z"/>
      </clipPath>
      <clipPath clipPathUnits="userSpaceOnUse" id="clipPath2">
        <path d="M1112 957 L2052 957 L2052 1415 L1112 1415 L1112 957 Z"/>
      </clipPath>
    </defs>
    <g fill="silver" text-rendering="geometricPrecision" shape-rendering="geometricPrecision" transform="matrix(1,0,0,1,-1112,-957)" stroke="silver">
      <rect x="1147" width="250" height="80" y="980" clip-path="url(#clipPath2)" stroke="none"/>
    </g>
    <g fill="white" text-rendering="geometricPrecision" shape-rendering="geometricPrecision" transform="matrix(1,0,0,1,-1112,-957)" stroke="white">
      <rect x="1147" width="1" height="80" y="980" clip-path="url(#clipPath2)" stroke="none"/>
      <rect x="1148" width="248" height="1" y="980" clip-path="url(#clipPath2)" stroke="none"/>
      <rect x="1148" y="1059" clip-path="url(#clipPath2)" fill="rgb(134,134,134)" width="249" height="1" stroke="none"/>
      <rect x="1396" y="980" clip-path="url(#clipPath2)" fill="rgb(134,134,134)" width="1" height="79" stroke="none"/>
    </g>
    <g font-size="35px" stroke-linecap="butt" transform="matrix(1,0,0,1,-1112,-957)" text-rendering="geometricPrecision" font-family="sans-serif" shape-rendering="geometricPrecision" stroke-miterlimit="1.45">
      <text x="1252.5575" xml:space="preserve" y="1028.015" clip-path="url(#clipPath2)" stroke="none">jar</text>
    </g>
    <g fill="silver" text-rendering="geometricPrecision" shape-rendering="geometricPrecision" transform="matrix(1,0,0,1,-1112,-957)" stroke="silver">
      <rect x="1137" width="250" height="80" y="990" clip-path="url(#clipPath2)" stroke="none"/>
      <rect x="1137" y="990" clip-path="url(#clipPath2)" fill="white" width="1" height="80" stroke="none"/>
      <rect x="1138" y="990" clip-path="url(#clipPath2)" fill="white" width="248" height="1" stroke="none"/>
      <rect x="1138" y="1069" clip-path="url(#clipPath2)" fill="rgb(134,134,134)" width="249" height="1" stroke="none"/>
      <rect x="1386" y="990" clip-path="url(#clipPath2)" fill="rgb(134,134,134)" width="1" height="79" stroke="none"/>
    </g>
    <g font-size="35px" stroke-linecap="butt" transform="matrix(1,0,0,1,-1112,-957)" text-rendering="geometricPrecision" font-family="sans-serif" shape-rendering="geometricPrecision" stroke-miterlimit="1.45">
      <text x="1242.5575" xml:space="preserve" y="1038.015" clip-path="url(#clipPath2)" stroke="none">jar</text>
    </g>
    <g fill="rgb(255,204,153)" text-rendering="geometricPrecision" shape-rendering="geometricPrecision" transform="matrix(1,0,0,1,-1112,-957)" stroke="rgb(255,204,153)">
      <rect x="1470.153" y="972.9627" clip-path="url(#clipPath2)" width="566.5379" rx="4" ry="4" height="333.024" stroke="none"/>
      <rect x="1820.796" y="1046" clip-path="url(#clipPath2)" fill="rgb(51,102,255)" width="200" height="200" stroke="none"/>
      <rect x="1820.796" y="1046" clip-path="url(#clipPath2)" fill="rgb(72,145,255)" width="1" height="200" stroke="none"/>
      <rect x="1821.796" y="1046" clip-path="url(#clipPath2)" fill="rgb(72,145,255)" width="198" height="1" stroke="none"/>
      <rect x="1821.796" y="1245" clip-path="url(#clipPath2)" fill="rgb(35,71,178)" width="199" height="1" stroke="none"/>
      <rect x="2019.796" y="1046" clip-path="url(#clipPath2)" fill="rgb(35,71,178)" width="1" height="199" stroke="none"/>
    </g>
    <g font-size="35px" stroke-linecap="butt" transform="matrix(1,0,0,1,-1112,-957)" text-rendering="geometricPrecision" font-family="sans-serif" shape-rendering="geometricPrecision" stroke-miterlimit="1.45">
      <text x="1857.5858" xml:space="preserve" y="1154.015" clip-path="url(#clipPath2)" stroke="none">analysis</text>
      <text x="1164.1801" font-size="40px" y="1386.6317" clip-path="url(#clipPath2)" fill="red" stroke="none" xml:space="preserve">too complex</text>
    </g>
    <g fill="silver" text-rendering="geometricPrecision" shape-rendering="geometricPrecision" transform="matrix(1,0,0,1,-1112,-957)" stroke="silver">
      <rect x="1127" width="250" height="80" y="1000" clip-path="url(#clipPath2)" stroke="none"/>
      <rect x="1127" y="1000" clip-path="url(#clipPath2)" fill="white" width="1" height="80" stroke="none"/>
      <rect x="1128" y="1000" clip-path="url(#clipPath2)" fill="white" width="248" height="1" stroke="none"/>
      <rect x="1128" y="1079" clip-path="url(#clipPath2)" fill="rgb(134,134,134)" width="249" height="1" stroke="none"/>
      <rect x="1376" y="1000" clip-path="url(#clipPath2)" fill="rgb(134,134,134)" width="1" height="79" stroke="none"/>
    </g>
    <g font-size="35px" stroke-linecap="butt" transform="matrix(1,0,0,1,-1112,-957)" text-rendering="geometricPrecision" font-family="sans-serif" shape-rendering="geometricPrecision" stroke-miterlimit="1.45">
      <text x="1232.5575" xml:space="preserve" y="1048.015" clip-path="url(#clipPath2)" stroke="none">jar</text>
    </g>
    <g fill="silver" text-rendering="geometricPrecision" shape-rendering="geometricPrecision" transform="matrix(1,0,0,1,-1112,-957)" stroke="silver">
      <rect x="1147" width="250" height="80" y="1190.9867" clip-path="url(#clipPath2)" stroke="none"/>
      <rect x="1147" y="1190.9867" clip-path="url(#clipPath2)" fill="white" width="1" height="80" stroke="none"/>
      <rect x="1148" y="1190.9867" clip-path="url(#clipPath2)" fill="white" width="248" height="1" stroke="none"/>
      <rect x="1148" y="1269.9867" clip-path="url(#clipPath2)" fill="rgb(134,134,134)" width="249" height="1" stroke="none"/>
      <rect x="1396" y="1190.9867" clip-path="url(#clipPath2)" fill="rgb(134,134,134)" width="1" height="79" stroke="none"/>
    </g>
    <g font-size="35px" stroke-linecap="butt" transform="matrix(1,0,0,1,-1112,-957)" text-rendering="geometricPrecision" font-family="sans-serif" shape-rendering="geometricPrecision" stroke-miterlimit="1.45">
      <text x="1206.8473" xml:space="preserve" y="1239.0017" clip-path="url(#clipPath2)" stroke="none">rt-1.8.jar</text>
    </g>
    <g fill="rgb(204,255,255)" text-rendering="geometricPrecision" shape-rendering="geometricPrecision" transform="matrix(1,0,0,1,-1112,-957)" stroke="rgb(204,255,255)">
      <rect x="1506.898" width="90" height="80" y="1000" clip-path="url(#clipPath2)" stroke="none"/>
      <rect x="1506.898" y="1000" clip-path="url(#clipPath2)" fill="white" width="1" height="80" stroke="none"/>
      <rect x="1507.898" y="1000" clip-path="url(#clipPath2)" fill="white" width="88" height="1" stroke="none"/>
      <rect x="1507.898" y="1079" clip-path="url(#clipPath2)" fill="rgb(142,178,178)" width="89" height="1" stroke="none"/>
      <rect x="1595.898" y="1000" clip-path="url(#clipPath2)" fill="rgb(142,178,178)" width="1" height="79" stroke="none"/>
    </g>
    <g font-size="35px" stroke-linecap="butt" transform="matrix(1,0,0,1,-1112,-957)" text-rendering="geometricPrecision" font-family="sans-serif" shape-rendering="geometricPrecision" stroke-miterlimit="1.45">
      <text x="1515.9178" xml:space="preserve" y="1048.015" clip-path="url(#clipPath2)" stroke="none">KFG</text>
    </g>
    <g fill="rgb(204,255,255)" text-rendering="geometricPrecision" shape-rendering="geometricPrecision" transform="matrix(1,0,0,1,-1112,-957)" stroke="rgb(204,255,255)">
      <rect x="1506.898" width="90" height="80" y="1190.9867" clip-path="url(#clipPath2)" stroke="none"/>
      <rect x="1506.898" y="1190.9867" clip-path="url(#clipPath2)" fill="white" width="1" height="80" stroke="none"/>
      <rect x="1507.898" y="1190.9867" clip-path="url(#clipPath2)" fill="white" width="88" height="1" stroke="none"/>
      <rect x="1507.898" y="1269.9867" clip-path="url(#clipPath2)" fill="rgb(142,178,178)" width="89" height="1" stroke="none"/>
      <rect x="1595.898" y="1190.9867" clip-path="url(#clipPath2)" fill="rgb(142,178,178)" width="1" height="79" stroke="none"/>
    </g>
    <g font-size="35px" stroke-linecap="butt" transform="matrix(1,0,0,1,-1112,-957)" text-rendering="geometricPrecision" font-family="sans-serif" shape-rendering="geometricPrecision" stroke-miterlimit="1.45">
      <text x="1515.9178" xml:space="preserve" y="1239.0017" clip-path="url(#clipPath2)" stroke="none">KFG</text>
      <text x="1962.3361" xml:space="preserve" font-size="40px" y="1010.16" clip-path="url(#clipPath2)" stroke="none">Kex</text>
    </g>
    <g fill="url(#linearGradient1)" text-rendering="geometricPrecision" shape-rendering="geometricPrecision" transform="matrix(1,0,0,1,-1112,-957)" stroke="url(#linearGradient1)">
      <path d="M1659.1597 1212.347 L1685.52 1185.9867 L1722.7993 1185.9867 L1749.1597 1212.347 L1749.1597 1249.6262 L1722.7993 1275.9867 L1685.52 1275.9867 L1659.1597 1249.6262 Z" fill-rule="evenodd" clip-path="url(#clipPath2)" stroke="none"/>
    </g>
    <g stroke-linecap="butt" transform="matrix(1,0,0,1,-1112,-957)" fill="rgb(153,204,255)" text-rendering="geometricPrecision" shape-rendering="geometricPrecision" stroke="rgb(153,204,255)" stroke-width="2" stroke-miterlimit="1.45">
      <path fill="none" d="M1659.1597 1212.347 L1685.52 1185.9867 L1722.7993 1185.9867 L1749.1597 1212.347 L1749.1597 1249.6262 L1722.7993 1275.9867 L1685.52 1275.9867 L1659.1597 1249.6262 Z" fill-rule="evenodd" clip-path="url(#clipPath2)"/>
    </g>
    <g font-size="35px" stroke-linecap="butt" transform="matrix(1,0,0,1,-1112,-957)" text-rendering="geometricPrecision" font-family="sans-serif" shape-rendering="geometricPrecision" stroke-miterlimit="1.45">
      <text x="1680.8149" xml:space="preserve" y="1239.0017" clip-path="url(#clipPath2)" stroke="none">PS</text>
    </g>
    <g fill="url(#linearGradient2)" text-rendering="geometricPrecision" shape-rendering="geometricPrecision" transform="matrix(1,0,0,1,-1112,-957)" stroke="url(#linearGradient2)">
      <path d="M1659.16 1021.36 L1685.5205 994.9996 L1722.7997 994.9996 L1749.16 1021.36 L1749.16 1058.6392 L1722.7997 1084.9995 L1685.5205 1084.9995 L1659.16 1058.6392 Z" fill-rule="evenodd" clip-path="url(#clipPath2)" stroke="none"/>
    </g>
    <g stroke-linecap="butt" transform="matrix(1,0,0,1,-1112,-957)" fill="rgb(153,204,255)" text-rendering="geometricPrecision" shape-rendering="geometricPrecision" stroke="rgb(153,204,255)" stroke-width="2" stroke-miterlimit="1.45">
      <path fill="none" d="M1659.16 1021.36 L1685.5205 994.9996 L1722.7997 994.9996 L1749.16 1021.36 L1749.16 1058.6392 L1722.7997 1084.9995 L1685.5205 1084.9995 L1659.16 1058.6392 Z" fill-rule="evenodd" clip-path="url(#clipPath2)"/>
    </g>
    <g font-size="35px" stroke-linecap="butt" transform="matrix(1,0,0,1,-1112,-957)" text-rendering="geometricPrecision" font-family="sans-serif" shape-rendering="geometricPrecision" stroke-miterlimit="1.45">
      <text x="1680.8149" xml:space="preserve" y="1048.015" clip-path="url(#clipPath2)" stroke="none">PS</text>
      <path fill="none" d="M1272 1362.4717 L1272 1279.0165" clip-path="url(#clipPath2)"/>
      <path d="M1272 1271.0165 L1267 1283.0165 L1272 1280.0165 L1277 1283.0165 Z" stroke="none" clip-path="url(#clipPath2)"/>
      <path fill="none" d="M1377.0186 1040 L1498.9399 1040" clip-path="url(#clipPath2)"/>
      <path d="M1506.9399 1040 L1494.9399 1035 L1497.9399 1040 L1494.9399 1045 Z" stroke="none" clip-path="url(#clipPath2)"/>
      <path fill="none" d="M1397.0179 1230.9867 L1498.8633 1230.9867" clip-path="url(#clipPath2)"/>
      <path d="M1506.8633 1230.9867 L1494.8633 1225.9867 L1497.8633 1230.9867 L1494.8633 1235.9867 Z" stroke="none" clip-path="url(#clipPath2)"/>
      <path fill="none" d="M1596.9149 1230.9867 L1651.1516 1230.9867" clip-path="url(#clipPath2)"/>
      <path d="M1659.1516 1230.9867 L1647.1516 1225.9867 L1650.1516 1230.9867 L1647.1516 1235.9867 Z" stroke="none" clip-path="url(#clipPath2)"/>
      <path fill="none" d="M1596.9149 1040 L1651.1516 1040" clip-path="url(#clipPath2)"/>
      <path d="M1659.1516 1040 L1647.1516 1035 L1650.1516 1040 L1647.1516 1045 Z" stroke="none" clip-path="url(#clipPath2)"/>
      <path fill="none" d="M1704.16 1185.9911 L1704.16 1093.0162" clip-path="url(#clipPath2)"/>
      <path d="M1704.16 1085.0162 L1699.16 1097.0162 L1704.16 1094.0162 L1709.16 1097.0162 Z" stroke="none" clip-path="url(#clipPath2)"/>
      <path fill="none" d="M1746.8684 1060.8972 L1813.6102 1093.554" clip-path="url(#clipPath2)"/>
      <path d="M1820.7961 1097.0701 L1812.2148 1087.3047 L1812.712 1093.1145 L1807.8197 1096.2871 Z" stroke="none" clip-path="url(#clipPath2)"/>
    </g>
  </g>
</svg>
